<?xml version="1.0" encoding="UTF-8"?>
<svg width="47px" height="41px" viewBox="0 0 47 41" version="1.1" xmlns="http://www.w3.org/2000/svg" xmlns:xlink="http://www.w3.org/1999/xlink">
    <!-- Generator: Sketch 52.4 (67378) - http://www.bohemiancoding.com/sketch -->
    <title>console</title>
    <desc>Created with Sketch.</desc>
    <g id="Web" stroke="none" stroke-width="1" fill="none" fill-rule="evenodd">
        <g id="Home" transform="translate(-302.000000, -1675.000000)" fill-rule="nonzero">
            <g id="How-to-use-flashcards-" transform="translate(0.000000, 1430.000000)">
                <g id="step-01" transform="translate(135.000000, 143.000000)">
                    <g id="ima-step-01" transform="translate(0.000000, 99.000000)">
                        <g id="console" transform="translate(167.000000, 3.000000)">
                            <path d="M23.5015759,34.4856739 L16.138127,34.4856739 C15.5881338,34.4860655 15.0759623,34.7648705 14.7792968,35.2253686 L12.8275299,38.2550237 C11.7358168,39.9493906 10.2552475,40.9013218 8.71282359,40.9013218 C7.16921772,40.9013218 5.68943633,39.9493906 4.59772336,38.2550237 L1.60427843,33.6038356 C0.587027176,31.9055528 0.0669762103,29.9586167 0.102434281,27.9827036 L0.102434281,27.8656211 C0.102434281,24.2153117 1.70277288,21.0337237 3.98351163,20.1483611 C6.87649214,19.0245263 9.95503621,18.4473373 13.0607648,18.4465541 L33.942387,18.4465541 C37.0485096,18.4473373 40.1270537,19.0245263 43.0196402,20.1483611 C45.3007729,21.030591 46.9007175,24.2153117 46.9007175,27.8656211 L46.9007175,27.9827036 C46.9373575,29.960183 46.4177005,31.9082939 45.4000553,33.6077513 L42.4066104,38.2589395 C41.3148973,39.953698 39.8351161,40.9056292 38.2915102,40.9056292 C36.7479043,40.9056292 35.267335,39.953698 34.17641,38.2589395 L32.223855,35.2253686 C31.9275835,34.7648705 31.4154121,34.4860655 30.8650249,34.4856739 L23.5015759,34.4856739 Z" id="Shape" fill="#808080"></path>
                            <path d="M43.6732497,27.669048 C43.6732497,30.5479447 41.3251408,32.8817619 38.4286145,32.8817619 C35.5320883,32.8817619 33.1839793,30.5479447 33.1839793,27.669048 C33.1839793,24.7901513 35.5320883,22.456334 38.4286145,22.456334 C41.3251408,22.456334 43.6732497,24.7901513 43.6732497,27.669048 Z" id="Shape" fill="#29485A"></path>
                            <path d="M41.2526489,27.669048 C41.2526489,29.2193135 39.9883735,30.4758939 38.4286145,30.4758939 C36.8692496,30.4758939 35.6045802,29.2193135 35.6045802,27.669048 C35.6045802,26.1191741 36.8692496,24.862202 38.4286145,24.862202 C39.9883735,24.862202 41.2526489,26.1191741 41.2526489,27.669048 Z" id="Shape" fill="#F15A24"></path>
                            <path d="M13.0123055,27.26807 L8.97797076,27.26807 L8.97797076,23.25829 C8.97797076,22.8154129 8.61669296,22.456334 8.17110381,22.456334 C7.72551466,22.456334 7.36423686,22.8154129 7.36423686,23.25829 L7.36423686,27.26807 L3.32990209,27.26807 C2.88431294,27.26807 2.52303514,27.6271489 2.52303514,28.070026 C2.52303514,28.5132946 2.88431294,28.871982 3.32990209,28.871982 L7.36423686,28.871982 L7.36423686,32.8817619 C7.36423686,33.3250306 7.72551466,33.6837179 8.17110381,33.6837179 C8.61669296,33.6837179 8.97797076,33.3250306 8.97797076,32.8817619 L8.97797076,28.871982 L13.0123055,28.871982 C13.4578947,28.871982 13.8191725,28.5132946 13.8191725,28.070026 C13.8191725,27.6271489 13.4578947,27.26807 13.0123055,27.26807 Z" id="Shape" fill="#29485A"></path>
                            <polygon id="Shape" fill="#666666" points="25.9221768 30.4758939 29.1496446 30.4758939 29.1496446 32.0798059 25.9221768 32.0798059"></polygon>
                            <polygon id="Shape" fill="#666666" points="17.8535072 30.4758939 21.0809751 30.4758939 21.0809751 32.0798059 17.8535072 32.0798059"></polygon>
                            <polygon id="Shape" fill="#3C494E" points="14.6260394 15.2387301 32.3771124 15.2387301 32.3771124 18.4465541 14.6260394 18.4465541"></polygon>
                            <path d="M25.9221768,0.00156632029 L25.9221768,0.803522311 C25.9221768,1.68966804 25.1996211,2.40743429 24.3084429,2.40743429 L15.4329064,2.40743429 C12.7593716,2.40743429 10.5917047,4.5619078 10.5917047,7.21917023 C10.5917047,9.87682422 12.7593716,12.0309062 15.4329064,12.0309062 L20.2741081,12.0309062 C21.1652863,12.0309062 21.887842,12.7490641 21.887842,13.6348182 L21.887842,15.2387301 L25.1153098,15.2387301 L25.1153098,13.6348182 C25.1153098,10.9775557 22.9480368,8.82308221 20.2741081,8.82308221 L15.4329064,8.82308221 C14.5417282,8.82308221 13.8191725,8.10531596 13.8191725,7.21917023 C13.8191725,6.33341616 14.5417282,5.61525825 15.4329064,5.61525825 L24.3084429,5.61525825 C26.9823716,5.61525825 29.1496446,3.46117629 29.1496446,0.803522311 L29.1496446,0.00156632029 L25.9221768,0.00156632029 Z" id="Shape" fill="#E6E6E6"></path>
                            <polygon id="Shape" fill="#999999" points="18.6603742 22.456334 28.3427776 22.456334 28.3427776 24.060246 18.6603742 24.060246"></polygon>
                        </g>
                    </g>
                </g>
            </g>
        </g>
    </g>
</svg>