<?xml version="1.0" encoding="UTF-8"?>
<svg width="47px" height="47px" viewBox="0 0 47 47" version="1.1" xmlns="http://www.w3.org/2000/svg" xmlns:xlink="http://www.w3.org/1999/xlink">
    <!-- Generator: Sketch 52.4 (67378) - http://www.bohemiancoding.com/sketch -->
    <title>dj-mixer</title>
    <desc>Created with Sketch.</desc>
    <g id="Web" stroke="none" stroke-width="1" fill="none" fill-rule="evenodd">
        <g id="Home" transform="translate(-388.000000, -1672.000000)" fill-rule="nonzero">
            <g id="How-to-use-flashcards-" transform="translate(0.000000, 1430.000000)">
                <g id="step-01" transform="translate(135.000000, 143.000000)">
                    <g id="ima-step-01" transform="translate(0.000000, 99.000000)">
                        <g id="dj-mixer" transform="translate(253.000000, 0.000000)">
                            <path d="M43.5891045,11.9238901 C50.0464718,22.4120226 47.0359291,36.0336698 36.7333585,42.9419182 C26.430788,49.8501668 12.4322581,47.6342329 4.85635081,37.8960012 C-2.71955645,28.1577696 -1.22909104,14.2954711 8.25105842,6.33029695 C17.731208,-1.63526524 31.8916163,-0.924179085 40.496833,7.94926004 L43.5891045,11.9238901 Z" id="Shape" fill="#3C494E"></path>
                            <path d="M31.6022093,23.8477801 C31.6022093,28.2381161 27.9820565,31.7970402 23.5161878,31.7970402 C19.0503192,31.7970402 15.4301663,28.2381161 15.4301663,23.8477801 C15.4301663,19.4574441 19.0503192,15.8985201 23.5161878,15.8985201 C27.9820565,15.8985201 31.6022093,19.4574441 31.6022093,23.8477801 Z" id="Shape" fill="#FBCC34"></path>
                            <path d="M25.9419943,23.8477801 C25.9419943,25.1647644 24.8558299,26.2325581 23.5161878,26.2325581 C22.1765457,26.2325581 21.0903814,25.1647644 21.0903814,23.8477801 C21.0903814,22.5307958 22.1765457,21.4630021 23.5161878,21.4630021 C24.8558299,21.4630021 25.9419943,22.5307958 25.9419943,23.8477801 Z" id="Shape" fill="#29485A"></path>
                            <g id="Group" transform="translate(3.234409, 9.539112)" fill="#808080">
                                <path d="M6.53554265,28.5703703 C6.3203629,28.5711466 6.11426416,28.4869186 5.96304606,28.3367055 C-1.89831989,20.5815192 -1.89831989,8.03581695 5.96304606,0.280630641 C6.1655914,0.0737480677 6.4664482,-0.00970366173 6.7491432,0.0628798393 C7.03183799,0.135075317 7.25294014,0.352049774 7.32756219,0.629575235 C7.40178934,0.907488719 7.31808638,1.20325714 7.10803934,1.4031531 C-0.124369985,8.53807972 -0.124369985,20.0792564 7.10803934,27.214183 C7.3386173,27.4416375 7.40731684,27.7835954 7.28215726,28.0801401 C7.15699767,28.3770728 6.86245797,28.5703703 6.53554265,28.5703703 Z" id="Shape"></path>
                                <path d="M9.07782258,25.4376321 C8.85435143,25.4380203 8.64075098,25.3471938 8.48755878,25.187277 C2.6492776,19.0704612 2.6492776,9.546875 8.48755878,3.43005911 C8.79354839,3.10983747 9.30563674,3.09392345 9.63136756,3.39473766 C9.95709848,3.69555197 9.97328629,4.19897921 9.66729668,4.51920094 C4.41454131,10.0239082 4.41454131,18.5934279 9.66729668,24.0981352 C9.88839883,24.329083 9.94841227,24.6671594 9.82009409,24.95827 C9.6921707,25.2493806 9.4003948,25.4376321 9.07782258,25.4376321 Z" id="Shape"></path>
                                <path d="M34.0280158,28.5703703 C33.7011004,28.5703703 33.4065608,28.3770728 33.2814013,28.0801401 C33.1562416,27.7835954 33.2249412,27.4416375 33.4555192,27.214183 C34.1598875,26.5190109 34.8070061,25.7698864 35.3905578,24.9734078 C35.5567792,24.7362496 35.8402638,24.6062202 36.1316448,24.6330025 C36.4230259,24.6597846 36.6772934,24.8394969 36.795741,25.1026608 C36.9141885,25.366213 36.8786542,25.6716851 36.702957,25.9018565 C36.0688676,26.7670372 35.3660787,27.5813706 34.6005125,28.3367055 C34.4492944,28.4869186 34.2428007,28.5711466 34.0280158,28.5703703 Z" id="Shape"></path>
                                <path d="M37.2624244,6.35940803 C36.9145833,6.35901991 36.6058299,6.14010474 36.4956737,5.81561346 C35.9208082,4.15628303 34.9128192,2.67472419 33.5727823,1.51843288 L33.4547295,1.4031531 C33.1392642,1.09185879 33.1404486,0.588043431 33.4570985,0.278301706 C33.7737483,-0.0318280423 34.2858367,-0.0306636744 34.6013021,0.280630641 L34.7185652,0.395910412 C36.2339046,1.72803251 37.3737651,3.42151991 38.0287803,5.3133506 C38.1109039,5.55555461 38.0698421,5.82182382 37.9178343,6.02909452 C37.7662214,6.23636531 37.5222194,6.35940803 37.2624244,6.35940803 Z" id="Shape"></path>
                                <path d="M31.4857358,25.4376321 C31.1631636,25.4376321 30.8713878,25.2493806 30.7430695,24.95827 C30.6151461,24.6671594 30.6751596,24.329083 30.8962617,24.0981352 C31.5070565,23.4604089 32.057048,22.7683421 32.5387349,22.03125 C32.7795783,21.6617336 33.2802168,21.5542168 33.6560904,21.7913749 C34.0319641,22.0285329 34.1413306,22.5203158 33.9000924,22.8898322 C33.3647093,23.7099878 32.7543095,24.4800723 32.0759996,25.1903822 C31.9224126,25.3491345 31.7088122,25.4387966 31.4857358,25.4376321 Z" id="Shape"></path>
                                <path d="M35.5642809,16.6934461 C35.5358535,16.6934461 35.5078209,16.6918935 35.4793935,16.6887883 C35.2661878,16.6666639 35.0703545,16.5622523 34.9353243,16.3980659 C34.800294,16.2342676 34.737122,16.0238917 34.7596271,15.8142921 C35.202621,11.6762519 33.7938844,7.55334963 30.8994203,4.51764835 C30.5934308,4.19742671 30.6096186,3.69399938 30.9353495,3.39318517 C31.2614751,3.09237086 31.7731686,3.10828488 32.0791582,3.42850652 C35.2934308,6.80150802 36.8573337,11.3816481 36.3649866,15.9780903 C36.3235299,16.38254 35.9780578,16.6915054 35.5642809,16.6934461 Z" id="Shape"></path>
                            </g>
                            <polygon id="Shape" fill="#E6E6E6" points="38.8796287 25.4376321 40.496833 23.0528541 40.496833 0 43.7312416 0 43.7312416 23.8477801 41.3054351 28.6173362"></polygon>
                            <path d="M38.8796287,25.4376321 L39.5871556,25.4376321 C40.5363155,25.437244 41.3058299,26.1937434 41.3054351,27.1268499 L41.3054351,33.2875264 C41.3058299,34.2206329 40.5363155,34.9771323 39.5871556,34.9767442 L38.1721018,34.9767442 C37.2229418,34.9771323 36.4534274,34.2206329 36.4538222,33.2875264 L36.4538222,27.1268499 C36.4534274,26.1937434 37.2229418,25.437244 38.1721018,25.4376321 L38.8796287,25.4376321 Z" id="Shape" fill="#0378A3"></path>
                        </g>
                    </g>
                </g>
            </g>
        </g>
    </g>
</svg>