<svg xmlns="http://www.w3.org/2000/svg" width="86" height="86" viewBox="0 0 86 86">
    <g fill="none" fill-rule="nonzero">
        <path fill="#EC008C" d="M42.997 22.989a19.922 19.922 0 0 1 14.116 5.835L73.405 12.57c-16.789-16.76-44.017-16.76-60.806 0l16.279 16.242a19.92 19.92 0 0 1 14.119-5.823z"/>
        <path fill="#F9A01B" d="M85.997 42.909a42.724 42.724 0 0 0-12.592-30.34L57.113 28.825c7.796 7.779 7.796 20.391 0 28.17L73.405 73.25a42.724 42.724 0 0 0 12.592-30.34z"/>
        <path fill="#FFEC5F" d="M42.997 62.829a19.918 19.918 0 0 1-14.116-5.835l-7.384 7.367-8.907 8.888c16.793 16.757 44.021 16.757 60.815 0L57.113 56.994a19.918 19.918 0 0 1-14.116 5.835z"/>
        <path fill="#00AAAD" d="M28.88 56.994c-7.795-7.779-7.795-20.391 0-28.17L12.603 12.582c-.4.4-.8.802-1.185 1.226-15.66 16.916-15.143 43.152 1.173 59.44l8.907-8.887 7.384-7.367z"/>
    </g>
</svg>
