<?xml version="1.0" encoding="UTF-8"?>
<svg width="46px" height="35px" viewBox="0 0 46 35" version="1.1" xmlns="http://www.w3.org/2000/svg" xmlns:xlink="http://www.w3.org/1999/xlink">
    <!-- Generator: Sketch 52.4 (67378) - http://www.bohemiancoding.com/sketch -->
    <title>photography</title>
    <desc>Created with Sketch.</desc>
    <g id="Web" stroke="none" stroke-width="1" fill="none" fill-rule="evenodd">
        <g id="Home" transform="translate(-217.000000, -1678.000000)" fill-rule="nonzero">
            <g id="How-to-use-flashcards-" transform="translate(0.000000, 1430.000000)">
                <g id="step-01" transform="translate(135.000000, 143.000000)">
                    <g id="ima-step-01" transform="translate(0.000000, 99.000000)">
                        <g id="photography" transform="translate(82.000000, 6.000000)">
                            <polygon id="Shape" fill="#808080" points="0 6.36363636 46 6.36363636 46 35 0 35"></polygon>
                            <polygon id="Shape" fill="#666666" points="34.8965517 6.36363636 30.7788423 0 17.6004681 0 13.4827586 6.36363636"></polygon>
                            <polygon id="Shape" fill="#3C494E" points="0 6.36363636 8.72413793 6.36363636 8.72413793 35 0 35"></polygon>
                            <path d="M35.6896552,20.6818182 C35.6896552,26.8322199 30.7184301,31.8181818 24.5862069,31.8181818 C18.4539837,31.8181818 13.4827586,26.8322199 13.4827586,20.6818182 C13.4827586,14.5314164 18.4539837,9.54545455 24.5862069,9.54545455 C30.7184301,9.54545455 35.6896552,14.5314164 35.6896552,20.6818182 Z" id="Shape" fill="#29485A"></path>
                            <path d="M32.5172414,20.6818182 C32.5172414,25.0750733 28.966477,28.6363636 24.5862069,28.6363636 C20.2059368,28.6363636 16.6551724,25.0750733 16.6551724,20.6818182 C16.6551724,16.2885631 20.2059368,12.7272727 24.5862069,12.7272727 C28.966477,12.7272727 32.5172414,16.2885631 32.5172414,20.6818182 Z" id="Shape" fill="#0378A3"></path>
                            <path d="M30.137931,20.6818182 L28.5517241,20.6818182 C28.5246161,19.4171697 28.0440295,18.2049561 27.1978718,17.2669567 L28.3193696,16.1421342 C29.4598431,17.3807595 30.1069504,18.9961381 30.137931,20.6818182 Z" id="Shape" fill="#06AAE9"></path>
                            <path d="M29.1124731,24.4260476 L27.9909752,23.3012251 C28.2945851,23.0289529 28.492861,22.6584139 28.5517241,22.2544722 L30.137931,22.2727273 C30.0825532,23.0953703 29.7158204,23.8659668 29.1124731,24.4260476 Z" id="Shape" fill="#06AAE9"></path>
                            <polygon id="Shape" fill="#F15A24" points="1.5862069 3.18181818 7.93103448 3.18181818 7.93103448 6.36363636 1.5862069 6.36363636"></polygon>
                            <polygon id="Shape" fill="#E6E6E6" points="37.2758621 9.54545455 42.8275862 9.54545455 42.8275862 14.3181818 37.2758621 14.3181818"></polygon>
                            <path d="M38.0689655,30.2272727 C38.0689655,31.1058461 37.3587352,31.8181818 36.4827586,31.8181818 C35.606782,31.8181818 34.8965517,31.1058461 34.8965517,30.2272727 C34.8965517,29.3486993 35.606782,28.6363636 36.4827586,28.6363636 C37.3587352,28.6363636 38.0689655,29.3486993 38.0689655,30.2272727 Z" id="Shape" fill="#666666"></path>
                            <polygon id="Shape" fill="#E6E6E6" points="38.0689655 2.38636364 44.4137931 2.38636364 44.4137931 6.36363636 38.0689655 6.36363636"></polygon>
                            <polygon id="Shape" fill="#E6E6E6" points="19 2 29.3103448 2 29.3103448 3.59090909 19 3.59090909"></polygon>
                        </g>
                    </g>
                </g>
            </g>
        </g>
    </g>
</svg>