<?xml version="1.0" encoding="UTF-8"?>
<svg width="43px" height="46px" viewBox="0 0 43 46" version="1.1" xmlns="http://www.w3.org/2000/svg" xmlns:xlink="http://www.w3.org/1999/xlink">
    <!-- Generator: Sketch 52.4 (67378) - http://www.bohemiancoding.com/sketch -->
    <title>camera-film</title>
    <desc>Created with Sketch.</desc>
    <g id="Web" stroke="none" stroke-width="1" fill="none" fill-rule="evenodd">
        <g id="Home" transform="translate(-135.000000, -1672.000000)" fill-rule="nonzero">
            <g id="How-to-use-flashcards-" transform="translate(0.000000, 1430.000000)">
                <g id="step-01" transform="translate(135.000000, 143.000000)">
                    <g id="ima-step-01" transform="translate(0.000000, 99.000000)">
                        <g id="camera-film">
                            <path d="M27.1666667,6.34482759 C27.1666667,3.6703133 24.9876162,1.5 22.2962963,1.5 C19.6049764,1.5 17.4259259,3.6703133 17.4259259,6.34482759 C17.4259259,9.01934187 19.6049764,11.1896552 22.2962963,11.1896552 C24.9876162,11.1896552 27.1666667,9.01934187 27.1666667,6.34482759 Z" id="Shape" stroke="#3C494E" stroke-width="3" fill="#999999"></path>
                            <path d="M14.4259259,7.93103448 C14.4259259,6.13288404 12.9595762,4.67241379 11.1481481,4.67241379 C9.33672013,4.67241379 7.87037037,6.13288404 7.87037037,7.93103448 C7.87037037,9.72918492 9.33672013,11.1896552 11.1481481,11.1896552 C12.9595762,11.1896552 14.4259259,9.72918492 14.4259259,7.93103448 Z" id="Shape" stroke="#3C494E" stroke-width="3" fill="#CCCCCC"></path>
                            <path d="M5.57407407,12.6896552 L27.8703704,12.6896552 C30.0702944,12.6896552 31.8518519,14.4640693 31.8518519,16.6551724 L31.8518519,28.5517241 C31.8518519,30.7428273 30.0702944,32.5172414 27.8703704,32.5172414 L5.57407407,32.5172414 C3.37415008,32.5172414 1.59259259,30.7428273 1.59259259,28.5517241 L1.59259259,16.6551724 C1.59259259,14.4640693 3.37415008,12.6896552 5.57407407,12.6896552 Z" id="Shape" fill="#0378A3"></path>
                            <path d="M28.6666667,17.4482759 L28.6666667,27.7586207 C28.6666667,28.6311119 27.9500777,29.3448276 27.0740741,29.3448276 L6.37037037,29.3448276 C5.49436671,29.3448276 4.77777778,28.6311119 4.77777778,27.7586207 L4.77777778,17.4482759 C4.77777778,16.5757846 5.49436671,15.862069 6.37037037,15.862069 L27.0740741,15.862069 C27.9500777,15.862069 28.6666667,16.5757846 28.6666667,17.4482759 Z" id="Shape" fill="#29485A"></path>
                            <path d="M27.0740741,29.3943966 L6.37037037,29.3943966 C5.46442786,29.3943966 4.72800926,28.6609307 4.72800926,27.7586207 L4.72800926,17.4482759 C4.72800926,16.5459658 5.46442786,15.8125 6.37037037,15.8125 L27.0740741,15.8125 C27.9800166,15.8125 28.7164352,16.5459658 28.7164352,17.4482759 L28.7164352,27.7586207 C28.7164352,28.6609307 27.9800166,29.3943966 27.0740741,29.3943966 Z M6.37037037,15.9116379 C5.52430556,15.9116379 4.8275463,16.6056034 4.8275463,17.4482759 L4.8275463,27.7586207 C4.8275463,28.6012931 5.52430556,29.2952586 6.37037037,29.2952586 L27.0740741,29.2952586 C27.9201389,29.2952586 28.6168981,28.6012931 28.6168981,27.7586207 L28.6168981,17.4482759 C28.6168981,16.6056034 27.9201389,15.9116379 27.0740741,15.9116379 L6.37037037,15.9116379 Z" id="Shape" fill="#0378A3"></path>
                            <g id="Group" transform="translate(0.000000, 11.896552)" fill="#29485A">
                                <polygon id="Shape" points="31.8518519 4.75862069 31.8518519 16.6551724 43 20.6206897 43 0"></polygon>
                                <path d="M11.9444444,20.6206897 L0.328549961,32.1900088 C0.119366706,32.3983533 4.4408921e-16,32.6856984 4.4408921e-16,32.9831122 C4.4408921e-16,33.59769 0.507794366,34.1034483 1.12484626,34.1034483 L1.73178897,34.1034483 C2.15015548,34.1034483 2.55802411,33.9349912 2.85663522,33.6375774 L15.9259259,20.6206897 L11.9444444,20.6206897 Z" id="Shape"></path>
                                <path d="M22.2962963,20.6206897 L33.9121908,32.1900088 C34.121374,32.3983533 34.2407407,32.6856984 34.2407407,32.9831122 C34.2407407,33.59769 33.7329464,34.1034483 33.1158945,34.1034483 L32.5089518,34.1034483 C32.0905853,34.1034483 31.6827166,33.9349912 31.3841055,33.6375774 L18.3148148,20.6206897 L22.2962963,20.6206897 Z" id="Shape"></path>
                            </g>
                        </g>
                    </g>
                </g>
            </g>
        </g>
    </g>
</svg>