<?xml version="1.0" encoding="UTF-8"?>
<svg width="800px" height="359px" viewBox="0 0 800 359" version="1.1" xmlns="http://www.w3.org/2000/svg" xmlns:xlink="http://www.w3.org/1999/xlink">
    <!-- Generator: Sketch 52.4 (67378) - http://www.bohemiancoding.com/sketch -->
    <title>ima-home</title>
    <desc>Created with Sketch.</desc>
    <defs>
        <rect id="path-1" x="0" y="0" width="207" height="122" rx="8"></rect>
        <rect id="path-3" x="0" y="0" width="289" height="108" rx="8"></rect>
        <rect id="path-5" x="0" y="0" width="207" height="108" rx="8"></rect>
    </defs>
    <g id="Web" stroke="none" stroke-width="1" fill="none" fill-rule="evenodd">
        <g id="Home" transform="translate(-320.000000, -94.000000)">
            <g id="ima-home">
                <g transform="translate(320.000000, 94.000000)">
                    <g id="Group-8" fill="#B0B0FF" fill-rule="nonzero" opacity="0.136082589">
                        <g id="11">
                            <path d="M615.928884,24.5934335 C571.247934,15.0123029 520.869737,20.6743007 485.97085,39.1993972 C470.828417,47.4493843 448.341688,49.5899668 429.294707,44.5945777 C385.650467,33.147769 334.56974,35.5068783 297.279004,52.8001753 C274.362042,63.3114419 254.609889,75.873096 238.797888,89.9920465 C212.004283,114.50373 172.56013,133.723462 125.842697,145.031093 C122.232751,145.851652 118.947701,146.71324 115.590452,147.595342 C86.4361053,155.19298 69.1461401,172.56085 72.7043003,190.674729 C73.0820698,192.267621 73.0820698,193.882113 72.7043003,195.475004 C70.7600398,202.867422 60.7140808,208.72488 47.7595776,210.019426 C20.0527563,211.934457 0.264109655,224.487603 0,239.477521 C0,358.099675 346.435033,371.963369 399.201412,350.747839 C451.967791,329.532309 483.036305,332.752047 527.823767,333.618654 C532.829558,333.741738 537.883481,333.80328 542.985537,333.80328 C708.284937,333.80328 800,245.32401 800,162.693642 C799.711204,100.495211 723.866252,47.3024249 615.928884,24.5934335 Z M642.458479,98.7326176 C634.945737,100.095056 627.462976,96.1598299 623.958996,89.0036363 C620.455017,81.8474427 621.735976,73.1167003 627.125887,67.4187947 C632.515798,61.720889 640.774608,60.366732 647.54398,64.0709391 C654.313353,67.7751462 658.035864,75.6854939 656.747071,83.6275351 C655.493154,91.3546529 649.767915,97.407049 642.458479,98.7326176 Z M675.106032,109.855469 C671.027686,110.591922 666.965616,108.464773 665.063455,104.59656 C663.161295,100.728347 663.856673,96.0090272 666.782624,92.9290782 C669.708576,89.8491292 674.19193,89.1171524 677.866732,91.1194266 C681.541534,93.1217007 683.562326,97.3975643 682.862696,101.69056 C682.181998,105.86738 679.074011,109.138945 675.106032,109.855469 Z M236.106032,151.855469 C232.027686,152.591922 227.965616,150.464773 226.063455,146.59656 C224.161295,142.728347 224.856673,138.009027 227.782624,134.929078 C230.708576,131.849129 235.19193,131.117152 238.866732,133.119427 C242.541534,135.121701 244.562326,139.397564 243.862696,143.69056 C243.181998,147.86738 240.074011,151.138945 236.106032,151.855469 Z" id="Shape"></path>
                            <circle id="Oval" cx="705.361515" cy="16.3615153" r="16"></circle>
                            <circle id="Oval" cx="161" cy="71" r="27"></circle>
                            <path d="M198.999976,24.021739 C198.987976,29.5417407 194.505524,34.007985 188.985515,33.9999893 C183.465506,33.9919936 178.996011,29.5127825 179.000003,23.9927693 C179.003994,18.472756 183.479962,14.000013 188.999976,14 C191.655912,13.9999937 194.202751,15.0565458 196.078741,16.9366139 C197.954731,18.8166821 199.00575,21.3658096 198.999976,24.021739 Z" id="Shape"></path>
                        </g>
                    </g>
                    <g id="Combined-Shape" transform="translate(46.000000, 184.000000)">
                        <mask id="mask-2" fill="white">
                            <use xlink:href="#path-1"></use>
                        </mask>
                        <use id="Mask" fill="#BEEDE7" xlink:href="#path-1"></use>
                        <path d="M36.3652279,5.98003756 C36.2014377,5.96724641 36.1138881,5.96183206 36.1138881,5.96183206 L42.1918221,21.9322646 C44.1217913,27.0059607 45.0558923,32.4067948 44.9426112,37.8369211 L44.7330273,49.1504071 L44.3793544,70.7775827 C44.3793544,70.7775827 43.4593132,70.9041567 42.2601978,71.0052452 L42.3855616,73.9106715 C45.9887346,73.3832093 51.8611637,72.7128027 53.0246915,73.7375064 C54.727561,75.237201 39.310043,76.4737913 39.310043,76.4737913 L39.5318752,74.3769984 L39.4438794,71.1268195 C39.3819615,71.1260034 39.3204929,71.1248613 39.2595486,71.1233753 C39.2488963,71.258899 39.2307764,71.3937914 39.2052511,71.52743 C39.1842015,71.3929403 39.176143,71.2569219 39.1810755,71.1212617 C38.3170547,71.0957521 37.5666534,70.9984977 37.1487088,70.7775827 C35.6554232,69.9882697 37.6726686,41.5072265 33.1535151,33.4825445 C28.6343615,25.4578626 6.16958393,-1.6024173 6.16958393,-1.6024173 C4.80543958,-11.3864951 6.0211298,-19.4020187 8.51527247,-25.8886704 C-1.62383632,-21.872451 -6.14347202,-27.6629008 -6.14347202,-27.6629008 C-7.72418237,-29.0009071 -8.67437289,-30.9428439 -8.76327116,-33.0170738 C-9.16720395,-38.0342964 -6.81111847,-42.872641 -2.61984218,-45.6329262 C1.0871736,-47.9745547 6.14338594,-48.7638677 8.44880918,-52.5262595 C9.26094692,-53.8549364 9.6146198,-55.473028 10.3481636,-56.7885496 C13.0989527,-61.9059288 20.2379053,-62.7873282 25.7918795,-61.129771 C27.6428616,-60.4086101 29.5735791,-59.9139211 31.5423386,-59.6563868 C36.7426399,-59.3932824 41.2355954,-63.9055216 46.4751937,-63.7608142 C50.4423657,-63.5859602 53.8118435,-60.787496 54.727561,-56.9069466 C54.821644,-56.5923761 54.8766947,-56.2726406 54.8945755,-55.9539306 C55.8216457,-54.7949118 56.483796,-53.4361633 56.8234003,-51.9737405 C56.1067055,-50.4732952 54.8331393,-50.3663434 53.5984,-50.7456947 L50.7716643,-44.6989059 C50.3494674,-43.8008757 49.5875083,-43.1094729 48.6552113,-42.7784334 C47.7229143,-42.4473938 46.6975619,-42.504159 45.8071449,-42.9361069 L44.7068293,-43.4623155 L42.8074749,-41.3969466 C42.6437362,-41.2096664 42.4621857,-41.0417112 42.2663845,-40.8948314 L42.274412,-40.8829362 C42.3059481,-40.8984886 42.3228121,-40.9050269 42.3228121,-40.8970483 C42.3228121,-40.8970483 42.3228121,-40.8716706 42.3101253,-40.8300161 L42.335911,-40.7918066 C42.335911,-40.7918066 42.2366434,-40.5007816 42.0549785,-39.9713328 L65.7307174,-13.2842494 C72.0535848,-5.5902764 76.008347,-1.13994857 77.5950041,0.066734137 C78.1752893,0.308473481 78.8179099,0.380005048 79.4463434,0.265087759 C81.1704904,0.110258797 82.9075382,0.249328916 84.5835981,0.676382505 C86.2369452,0.958610346 89.2822307,4.26160937 88.8892648,4.5504275 C87.3383203,5.19333344 86.4091245,2.97554179 84.9819026,2.6259827 C83.5546806,2.27642361 82.2411017,2.21528256 82.2624872,2.68533441 C82.2838727,3.15538625 83.7731025,3.54220342 84.715969,3.9394006 C85.24941,4.17525727 85.6479421,4.80418799 85.4437231,5.08788279 C85.2395042,5.37157758 84.7459912,5.04117821 84.2145791,5.02667506 C83.3739155,4.9558561 82.5439046,4.79219241 81.7396579,4.53866373 C80.23486,4.66612538 78.7485214,4.14845084 77.6499829,3.11427728 C77.3552237,2.7590691 76.9486482,2.51477391 76.4966369,2.42127711 C75.6459238,2.2935022 74.8066765,2.099979 73.9863958,1.84249941 C73.9668318,2.01946445 73.9565662,2.20938075 73.9565662,2.41294643 C68.6701579,-0.42211159 47.8268076,-23.4339671 38.9439253,-31.0214192 C38.2787462,-29.130644 37.5544575,-27.0868197 36.8081349,-25.0055471 C36.1222749,-23.0914513 35.5931558,-21.3404299 35.1918,-19.7422035 C38.2064744,-11.6002655 43.3445337,-8.61414758 43.3445337,-8.61414758 L45.8333429,-8.02216285 C51.4193924,-6.67853684 55.2531284,-5.57061305 57.8819631,-4.67577575 C57.8690029,-4.666515 57.8565445,-4.65715282 57.8445761,-4.64769215 C58.0932798,-4.5785817 58.3114776,-4.52260492 58.4852519,-4.48619666 C59.146042,-4.34775147 59.9177085,-3.63956984 60.5479916,-3.25532461 C61.3422325,-2.77334775 62.0801835,-1.25709263 62.4678435,0.066058698 C65.4204603,1.75046776 67.806977,3.97798132 69.0447633,6.92216285 C74.5201435,19.945827 51.0860402,49.5582188 51.0860402,49.5582188 L50.2920959,49.2380224 L48.7413199,51.8472265 L46.1084218,50.6369466 L47.6280073,48.1635999 L46.0953228,47.5454707 C46.0953228,47.5454707 51.0860402,35.6794656 56.5745194,19.9852926 C60.6578532,8.47134123 39.8056656,6.26721858 36.5395024,5.99414413 C36.5358611,6.00898169 36.5294321,6.02020694 36.519957,6.02760814 C36.4916577,6.04971312 36.4369409,6.03240057 36.3652279,5.98003756 Z M58.3672441,-1.82837015 C58.4336382,-1.81161179 58.49405,-1.78831628 58.5500785,-1.75936845 C58.4892415,-1.78252674 58.4282955,-1.80552696 58.3672441,-1.82837015 Z M46.1084218,50.6895674 C46.1084218,50.6895674 57.0984792,55.3596692 57.753429,57.5829008 C58.4083788,59.8061323 44.7723242,52.3208142 44.7723242,52.3208142 L46.1084218,50.6895674 Z" fill="#BEEDE7" fill-rule="nonzero" style="mix-blend-mode: multiply;" mask="url(#mask-2)"></path>
                    </g>
                    <text id="CIAO" font-family="Rubik-Medium, Rubik" font-size="61" font-weight="400" fill="#FFFFFF" fill-opacity="0.71130548">
                        <tspan x="78.1115" y="266">CIAO</tspan>
                    </text>
                    <g id="Combined-Shape" transform="translate(302.000000, 33.000000)">
                        <mask id="mask-4" fill="white">
                            <use xlink:href="#path-3"></use>
                        </mask>
                        <use id="Mask" fill="#ECC1E3" xlink:href="#path-3"></use>
                        <path d="M-5.3434538,125.298312 C-5.37120124,125.295582 -5.39893895,125.292811 -5.42666667,125.29 C-9.73333333,124.864173 -14.48,123.001181 -16,119.009055 C-17.1733333,115.88189 -16.0933333,111.982913 -18.0133333,109.228346 C-18.5825468,108.481429 -19.1923502,107.76621 -19.84,107.085906 C-20.980441,105.690619 -21.7180147,104.011341 -21.9733333,102.228819 C-22.4389156,97.991091 -21.2551127,93.7368369 -18.6666667,90.3455906 C-16.0926286,86.9978434 -13.1546878,83.9451863 -9.90666667,81.2435433 C-8.78970761,80.3376279 -7.88037698,79.2032022 -7.24,77.9167717 C-6.2,75.3351969 -7.30666667,72.4209449 -7.53333333,69.6131496 C-7.8510863,65.5590569 -6.19952826,61.5991603 -3.09333333,58.9674803 C-0.341952822,56.7077799 3.21044094,55.7136697 6.69801304,56.1771785 C6.96446638,56.1045635 7.24281324,56.0616191 7.53333333,56.0532283 C9.66768147,55.8321616 11.8169089,56.2984652 13.6666667,57.383937 C14.2611225,58.9983585 13.3951508,60.025846 12.2116566,60.6729336 L14.6666667,67.0049606 C15.0308954,67.9399634 15.0062792,68.9813595 14.5982777,69.8981803 C14.1902762,70.8150011 13.4326148,71.5314622 12.4933333,71.8886614 L11.3333333,72.3411024 L11.8081575,77.7908317 C25.2432589,77.7988386 39.0418438,94.103593 45.32,98.2766142 C51.2533333,102.215512 57.92,89.6802362 57.92,89.6802362 L62.2533333,92.6477165 C62.2533333,92.6477165 61,99.780315 53,106.952835 C45,114.125354 26.7466667,96.8261417 26.7466667,96.8261417 L31.570887,126.679755 C34.1654829,133.230035 36.8511986,144.23508 36.9333333,161.804646 C37.0933333,196.030472 25.12,218.865433 25.12,218.865433 L22.0618667,218.865433 L22.1723625,221.622392 C25.8410306,221.089784 31.8200318,220.414822 33.0133333,221.460315 C34.76,222.99063 19.04,224.214882 19.04,224.214882 L19.2666667,222.085748 L19.1789325,218.865433 L16.6666667,218.865433 C16.6666667,218.865433 30.5333333,175.76378 14.96,147.233386 C10.3238965,169.703612 -1.12755687,190.205963 -17.84,205.957559 L-19.9739492,203.691507 L-23.1544084,205.811871 C-20.7940384,208.652687 -17.1185714,213.377329 -17.3733333,214.966457 C-17.7466667,217.295197 -27,204.49378 -27,204.49378 L-25.0666667,203.575591 L-21.9577443,201.584904 L-24.5066667,198.878189 C-24.5066667,198.878189 -4.17333333,173.368504 -4,141.471417 C-4,137.108394 -3.47687562,134.228884 -3.88686108,130.529519 L-4.66666667,130.519685 L-5.3434538,125.298312 Z" fill="#ECC1E3" fill-rule="nonzero" style="mix-blend-mode: multiply;" mask="url(#mask-4)"></path>
                    </g>
                    <text id="BONJOUR" font-family="Rubik-Medium, Rubik" font-size="49" font-weight="400" fill="#FFFFFF" fill-opacity="0.581719882">
                        <tspan x="328.3855" y="104">BONJOUR</tspan>
                    </text>
                    <g id="Ресурс-9" transform="translate(34.000000, 114.000000)" fill-rule="nonzero">
                        <polygon id="Shape" fill="#FFD4B7" points="51.2180201 138.027735 51.388307 141.9743 48.532726 142.408422 48.414835 138.054046"></polygon>
                        <path d="M48.532726,142.368957 C48.532726,142.368957 60.3218221,140.237812 62.0246915,141.737506 C63.727561,143.237201 48.310043,144.473791 48.310043,144.473791 L48.532726,142.368957 Z" id="Shape" fill="#3F327A"></path>
                        <polygon id="Shape" fill="#FFD4B7" points="59.7585653 116.453181 57.7413199 119.847226 55.1084218 118.636947 57.3876471 114.927176"></polygon>
                        <path d="M55.1084218,118.689567 C55.1084218,118.689567 66.0984792,123.359669 66.753429,125.582901 C67.4083788,127.806132 53.7723242,120.320814 53.7723242,120.320814 L55.1084218,118.689567 Z" id="Shape" fill="#3F327A"></path>
                        <path d="M92.3022064,66.9183509 C90.6455938,67.4155292 89.0850269,68.1909686 87.6868872,69.2116843 C87.0378697,69.7831215 86.1906339,70.0751355 85.3285894,70.0245113 C84.6919936,70.0245113 84.0119936,70.0245113 83.2885894,70.0245113 C82.8319607,70.0206455 82.3925054,70.1989267 82.0669068,70.5201318 C81.7413082,70.8413368 81.5562402,71.2791517 81.5524191,71.7372539 C81.5537266,72.2453283 81.777942,72.7270558 82.1653975,73.0542397 C82.5528529,73.3814235 83.0642451,73.5208744 83.563483,73.4354817 C84.4879482,73.2276843 85.3930702,72.9411897 86.2690149,72.5791104 C86.7046186,72.4264498 87.1789431,72.4264498 87.6145468,72.5791104 C89.0888168,72.8997811 90.6294798,72.5779938 91.8536957,71.6937096 C92.6736466,71.4968084 93.4693979,71.2096083 94.2264617,70.8373383 C94.6894404,70.5760725 95.2826319,70.605102 95.3115681,70.2567476 C95.3405042,69.9083931 94.6749723,69.5745535 94.0962489,69.6471273 C93.083483,69.792275 91.6077383,70.227718 91.3473128,69.8358193 C91.0868872,69.4439206 92.244334,68.8197855 93.6477383,68.3843425 C95.0511425,67.9488995 96.9898659,69.3713467 97.9881638,68.0214733 C98.1762489,67.5715155 93.8647596,66.3087307 92.3022064,66.9183509 Z" id="Shape" fill="#FFD4B7" transform="translate(89.773274, 70.107641) rotate(31.000000) translate(-89.773274, -70.107641) "></path>
                        <path d="M44.0004735,34.667201 C45.9784218,32.417659 76.4070684,66.9005037 82.9565662,70.4129464 C82.9565662,67.21875 85.484096,67.3852307 86.8029204,68.2153088 C85.374659,67.2709883 81.3505913,62.7711356 74.7307174,54.7157506 L49.7902296,26.6030534 L44.0004735,34.667201 Z" id="Shape" fill="#624FB5"></path>
                        <path d="M47.8646772,22.0645038 C42.3797163,19.3819408 35.8501273,20.0872804 31.0586657,23.8799237 L30.9145768,23.9983206 C22.5836155,30.6943257 12.025825,43.849542 15.1695839,66.3975827 L44.6161263,62.8982952 C44.6161263,62.8982952 40.4768436,57.8730025 45.8081349,42.9944529 C48.7423099,34.8119084 51.335911,27.2081934 51.335911,27.2081934 L47.8646772,22.0645038 Z" id="Shape" fill="#C4B9FF"></path>
                        <path d="M67.6784163,63.3846242 C67.0128844,63.7039491 65.9986736,63.9654198 65.5226716,64.4442023 C64.4738703,65.4991301 60.5745865,68.4212487 61.4571397,68.4067339 C61.8911822,68.4067339 62.2673524,68.4067339 62.5856503,68.4067339 C63.1753408,68.3196479 63.7742008,68.3147635 64.3652248,68.3922192 C65.6895006,68.3796648 66.8837688,67.5903808 67.4179907,66.3746664 C67.8809695,65.4166917 68.5833992,65.9312358 69.6974418,65.4812779 C70.8114843,65.0313201 73.3933099,65.4457213 73.3933099,64.6764386 C73.3933099,63.9071559 69.1830971,62.6588858 67.6784163,63.3846242 Z" id="Shape" fill="#FFD4B7" transform="translate(67.360753, 65.786314) rotate(57.000000) translate(-67.360753, -65.786314) "></path>
                        <path d="M32.1458824,32.8254707 C32.1458824,32.8254707 34.6346915,59.3858524 44.6161263,62.8982952 C50.6292924,65.0143138 59.5376399,65.8507942 65.6705049,66.1814514 C69.7177663,66.399662 65.5171131,64.2994792 66.8819631,63.3242243 C64.2531284,62.4293869 60.4193924,61.3214632 54.8333429,59.9778372 L52.3445337,59.3858524 C52.3445337,59.3858524 41.5247633,53.097659 42.0749211,33.8910433 C42.1120345,33.011849 42.0681848,32.1310913 41.9439311,31.26 C41.5116643,28.4316285 40.1493687,22.7485751 36.180373,23.2747837 C30.9145768,23.9720102 32.1458824,32.8254707 32.1458824,32.8254707 Z" id="Shape" fill="#624FB5"></path>
                        <path d="M15.1695839,66.3975827 C15.1695839,66.3975827 37.6343615,93.4578626 42.1535151,101.482545 C46.6726686,109.507226 44.6554232,137.98827 46.1487088,138.777583 C47.6419943,139.566896 53.3793544,138.777583 53.3793544,138.777583 L53.7330273,117.150407 L53.9426112,105.836921 C54.0558923,100.406795 53.1217913,95.0059607 51.1918221,89.9322646 L45.1138881,73.9618321 C45.1138881,73.9618321 70.0019799,75.5009924 65.5745194,87.9852926 C60.0860402,103.679466 55.0953228,115.545471 55.0953228,115.545471 L60.0860402,117.558219 C60.0860402,117.558219 83.5201435,87.945827 78.0447633,74.9221628 C72.5693831,61.8984987 44.6161263,62.8982952 44.6161263,62.8982952 L15.1695839,66.3975827 Z" id="Shape" fill="#FFC359"></path>
                        <path d="M63.701363,14.8949109 L59.7716643,23.3010941 C59.3494674,24.1991243 58.5875083,24.8905271 57.6552113,25.2215666 C56.7229143,25.5526062 55.6975619,25.495841 54.8071449,25.0638931 L53.7068293,24.5376845 L51.8074749,26.6030534 C51.1846483,27.3154268 50.3041058,27.7481909 49.3618433,27.8050187 C48.4195807,27.8618465 47.4937975,27.5380219 46.7905595,26.9056234 L45.9129268,26.1294656 C44.2124938,24.6130293 44.0543175,22.0007436 45.5592539,20.2885496 L54.7285509,9.92223919 L63.701363,14.8949109 Z" id="Shape" fill="#FFD4B7"></path>
                        <path d="M49.2793687,22.1302799 C49.2793687,22.1302799 52.9732855,23.0379898 54.6892539,21.0120865 C54.6892539,21.0120865 52.7637016,15.9473282 54.6892539,15.934173 C56.6148063,15.9210178 56.7981923,19.7886514 56.7981923,19.7886514 C56.7981923,19.7886514 58.1997848,15.7105344 59.2739024,15.2895674 C59.2739024,15.2895674 64.1205308,19.5913232 65.8234003,16.0262595 C65.3487487,13.9822886 64.2440179,12.1408408 62.6665423,10.764173 C59.7716643,7.88318066 54.0081062,9.4486514 54.0081062,9.4486514 L49.2793687,22.1302799 Z" id="Shape" fill="#353E70"></path>
                        <path d="M51.3228121,27.1029517 C51.3228121,27.1029517 51.3228121,27.3002799 51.0477331,27.4976081 C50.6842123,27.7583125 50.2603531,27.9213383 49.8164275,27.9711959 C49.1777005,28.0492879 48.5334096,28.0712966 47.8908752,28.036972 C47.4908635,27.9978485 47.1030458,27.8769747 46.7512626,27.6817812 C46.3772685,27.4659523 46.0517192,27.1748354 45.7950359,26.8266921 C44.9397416,25.6407576 44.4811106,24.2128993 44.4851363,22.7485751 C44.4454573,22.1540263 44.5629493,21.5595066 44.8257102,21.0252417 C44.9174032,21.0252417 44.8257102,21.6961578 44.8257102,22.7354198 C44.9127521,24.0900667 45.3655972,25.3953102 46.1356098,26.5109669 C46.3440631,26.8084555 46.6116769,27.0593004 46.9215495,27.247659 C47.2181219,27.4113502 47.5423433,27.518401 47.8777762,27.5633842 C48.4838838,27.6079885 49.092429,27.6079885 49.6985366,27.5633842 C50.0969806,27.5585683 50.4898714,27.4688917 50.8512482,27.3002799 C51.1394261,27.2081934 51.3228121,27.0766412 51.3228121,27.1029517 Z" id="Shape" fill="#624FB5"></path>
                        <path d="M35.8528981,29.9707888 C35.6549161,30.4312896 35.4136769,30.871789 35.1324534,31.2863104 L32.9842181,34.8645293 C30.6223439,38.7400242 28.584999,42.8058012 26.8931851,47.0199491 C26.0239553,49.3588202 25.3663465,51.7715956 24.9283357,54.2290076 C24.5500693,56.2280924 24.3614723,58.2587053 24.3650789,60.2935623 C24.3700484,61.6670878 24.4707199,63.0385803 24.6663558,64.3979898 C24.7685144,64.8927967 24.8385234,65.393752 24.8759397,65.8976845 C24.8759397,65.8976845 24.8759397,65.7792875 24.7449498,65.5293384 C24.6139598,65.2793893 24.5615638,64.9110433 24.4698709,64.4374555 C24.195133,63.0766541 24.0373645,61.6946556 23.998307,60.3067176 C23.9417048,58.2441728 24.095326,56.1812226 24.4567719,54.1500763 C24.8840359,51.6545878 25.5463255,49.205492 26.4347202,46.8357761 C28.1232531,42.5915413 30.2156923,38.5208661 32.6829412,34.6803562 C33.5998709,33.1938168 34.3727116,32.049313 34.9228694,31.2073791 C35.2007275,30.7717582 35.5116611,30.3583328 35.8528981,29.9707888 Z" id="Shape" fill="#624FB5"></path>
                        <path d="M44.5020752,20.7563477 C46.2617214,21.9455164 47.165484,21.9302897 49.2793687,22.1039695 C52.4100287,22.196056 54.427274,8.94875318 54.427274,8.94875318 L44.5020752,20.7563477 Z" id="Shape" fill="#353E70"></path>
                        <path d="M46.0847888,10.2203795 C45.3154742,9.66371879 44.7049159,8.91517282 44.3137403,8.04906971 C43.9954183,6.65318723 44.346579,5.18849918 45.2630223,4.08962252 C46.2548094,3.46519357 47.5157959,4.08962252 48.6634353,4.17477192 C50.4059711,4.18915435 52.1434043,3.98413558 53.8348968,3.56453454 C55.5776085,3.38004417 57.6886982,3.94770685 58.2129286,5.60812019 C58.3262757,5.94871779 58.411286,6.3744648 58.7654957,6.47380577 C58.9152942,6.5022169 59.0690855,6.5022169 59.2188841,6.47380577 C60.5648809,6.34608167 61.4999945,7.89296247 61.4291526,9.31211917 C61.1834038,10.6432263 60.8182688,11.9494136 60.3381867,13.2148001 C59.6581041,16.0531135 60.8482487,19.3171739 59.5872622,21.99938 C58.595475,24.1139235 55.4642614,25.9730188 53.3106665,24.4545211 L54.4508147,11.8258436 L46.0847888,10.2203795 Z" id="Shape" fill="#353E70" transform="translate(52.815852, 14.270128) scale(-1, 1) rotate(-46.000000) translate(-52.815852, -14.270128) "></path>
                        <path d="M30.7573888,67.45 C30.9478406,67.8882502 31.0157693,68.3703399 30.9538737,68.8444529 C30.9273247,69.9884033 30.6734759,71.115499 30.207231,72.1595674 C29.7343085,73.2015692 29.062283,74.1401855 28.2292826,74.9221628 C27.5874319,75.5009924 27.102769,75.7509415 27.063472,75.6983206 C27.024175,75.6456997 27.4171449,75.2905089 27.9673027,74.6590585 C28.6915157,73.8520504 29.2879322,72.9380569 29.7356671,71.949084 C30.172835,70.9537318 30.4598009,69.8984854 30.5871019,68.8181425 C30.5976601,68.3574859 30.6547144,67.8990926 30.7573888,67.45 Z" id="Shape" fill="#DBA246"></path>
                        <path d="M31.1503587,78.09257 C31.3191558,78.2388519 31.4727617,78.4019323 31.6088235,78.579313 L32.8270301,80.0526972 C33.8749498,81.3682188 35.3813343,83.2099491 37.1235007,85.6173537 C39.2003099,88.4209223 41.0447156,91.390797 42.6381779,94.4971247 C43.5785869,96.3581802 44.3755931,98.2888803 45.0221951,100.272265 C45.701694,102.3859 46.2141438,104.550066 46.5547776,106.744631 C47.7325022,114.411929 48.367213,122.153467 48.454132,129.910967 C48.454132,132.884046 48.454132,135.29145 48.375538,136.949008 C48.375538,137.790941 48.296944,138.435547 48.2707461,138.869669 C48.2685879,139.090451 48.246668,139.310591 48.2052511,139.52743 C48.1711441,139.309514 48.1711441,139.087585 48.2052511,138.869669 L48.2052511,136.949008 C48.2052511,135.29145 48.2052511,132.884046 48.1397561,129.924122 C47.933499,122.171003 47.2466555,114.438309 46.0832138,106.770941 C45.7460742,104.600836 45.2469047,102.459266 44.5899283,100.364351 C43.9438767,98.4269011 43.1648002,96.5367848 42.258307,94.7076081 C40.6771336,91.6056677 38.8642869,88.6284583 36.8353228,85.8015267 C35.1324534,83.3809669 33.6653659,81.4734606 32.6698422,80.1579389 L31.5171306,78.6187786 C31.3805085,78.4539294 31.2578254,78.2779155 31.1503587,78.09257 Z" id="Shape" fill="#DBA246"></path>
                        <path d="M44.3279484,70.7651145 C44.4720373,70.7651145 44.6292253,71.5149618 44.9567001,72.3832061 C45.284175,73.2514504 45.6378479,73.9355216 45.519957,74.0276081 C45.402066,74.1196947 44.8257102,73.5277099 44.4720373,72.5673791 C44.1183644,71.6070483 44.1969584,70.7651145 44.3279484,70.7651145 Z" id="Shape" fill="#DBA246"></path>
                        <path d="M43.1228407,67.634173 C43.0049498,67.7262595 42.232109,66.9106361 41.2103874,66.0029262 C40.1886657,65.0952163 39.311033,64.3848346 39.389627,64.2664377 C40.216371,64.4980392 40.9639673,64.9530725 41.5509613,65.5819593 C42.2521449,66.108579 42.795873,66.8184594 43.1228407,67.634173 Z" id="Shape" fill="#DBA246"></path>
                        <path d="M48.323142,72.92257 C48.5122854,72.8040515 48.7092233,72.6985672 48.9125968,72.6068448 C49.4807732,72.3261981 50.0672,72.0844675 50.6678623,71.8833079 C52.8960993,71.1247236 55.2476994,70.7988188 57.597231,70.9229771 C59.2177797,71.0089876 60.8204328,71.3052476 62.3652654,71.8043766 C64.1769259,72.353594 65.8303142,73.3327384 67.1856958,74.6590585 C67.9131793,75.4103707 68.4754689,76.3067245 68.8361693,77.2901018 C69.2105081,78.2913037 69.4398939,79.3412605 69.5173171,80.407888 C69.60901,81.4734606 69.60901,82.5653435 69.595911,83.6703817 C69.5828121,84.7754198 69.595911,85.8936132 69.4387231,87.0249618 C69.2147823,89.2406873 68.6857778,91.4144876 67.8668436,93.484173 C67.1071019,95.4837659 66.2163702,97.3386514 65.4042324,99.1146056 L61.0422669,108.53374 C59.7323673,111.164784 58.8023386,113.388015 58.0163989,114.848244 C57.7207971,115.41496 57.3927734,115.964012 57.0339742,116.492646 C56.9190321,116.68302 56.7827909,116.85957 56.6279053,117.018855 C56.719757,116.816541 56.8293472,116.622835 56.9553802,116.440025 C57.1649641,116.058524 57.47934,115.506005 57.8330129,114.756158 C58.5665567,113.282774 59.4965854,111.072697 60.714792,108.375878 C61.9329986,105.679059 63.3345911,102.469186 64.9719656,98.9172774 C65.7710043,97.1281679 66.648637,95.2732824 67.3952798,93.3 C68.1980642,91.2776302 68.7139666,89.1520236 68.9278623,86.9854962 C69.0326542,85.8673028 69.0719512,84.7622646 69.0850502,83.6703817 C69.0981492,82.5784987 69.0850502,81.4866158 69.0195552,80.4473537 C68.9377966,79.4125343 68.7129547,78.3941891 68.3515065,77.4216539 C68.0097878,76.5146727 67.4884128,75.686738 66.818924,74.9879389 C65.5240598,73.707063 63.9432326,72.7553978 62.2080775,72.2121883 C60.6990447,71.707082 59.1319497,71.3976228 57.544835,71.2913232 C55.237773,71.1390495 52.9221765,71.4018974 50.7071593,72.0674809 C49.1614778,72.5542239 48.34934,72.9751908 48.323142,72.92257 Z" id="Shape" fill="#DBA246"></path>
                    </g>
                    <g id="Ресурс-9-Copy" transform="translate(37.000000, 121.000000)"></g>
                    <g id="Group-13" transform="translate(538.000000, 95.000000)">
                        <g id="Combined-Shape" transform="translate(0.000000, 66.000000)">
                            <mask id="mask-6" fill="white">
                                <use xlink:href="#path-5"></use>
                            </mask>
                            <use id="Mask" fill="#FFECB1" xlink:href="#path-5"></use>
                            <path d="M203.230785,8.23525985 C203.322948,8.58815867 203.410528,8.91263094 203.493077,9.20598592 C203.771731,10.1642958 204.050385,11.1359155 204.315769,12.1075352 C204.309629,12.1080626 204.303489,12.1085899 204.297349,12.1091171 C206.441547,19.7254664 208.455769,27.3761457 208.455769,29.8495775 C208.455769,31.4933068 205.791766,34.7821572 202.922167,36.8492741 C202.647149,45.0423887 201.646559,56.4640036 198.901923,70.8040141 C196.075577,85.5912676 190.184038,113.861408 190.184038,113.861408 C190.012296,113.94131 189.837832,114.013649 189.661135,114.078379 C189.675711,116.87915 190.241631,119.807129 192.386731,120.636127 C196.394038,122.20669 201.728269,123.444507 201.569038,125.294577 C201.516117,125.603083 201.244,125.824856 200.932115,125.813662 L187.357692,125.813662 C186.573269,125.815063 185.833873,125.446289 185.36155,124.818087 C184.889227,124.189884 184.738992,123.375425 184.955962,122.619296 C184.738992,123.375425 184.889227,124.189884 185.36155,124.818087 C185.833873,125.446289 186.573269,125.815063 187.357692,125.813662 L200.932115,125.813662 C201.244,125.824856 201.516117,125.603083 201.569038,125.294577 C201.728269,123.444507 196.394038,122.20669 192.386731,120.636127 C191.763198,122.149965 186.239408,121.112712 185.5,120.676056 C185.5,120.676056 185.318654,121.323803 184.955962,122.619296 L185.5,120.676056 C185.842416,119.427799 186.007696,118.137356 185.990962,116.842817 L185.990962,114.348016 C185.902248,114.329612 185.813768,114.309383 185.725577,114.287324 C185.725577,114.287324 185.274423,101.815986 184.995769,88.386338 C184.898563,83.6720229 184.828061,78.839851 184.737312,74.3869214 C184.72678,74.2767795 184.719985,74.1519006 184.717115,74.0116901 C184.717831,73.8321789 184.718217,73.6526712 184.718274,73.4731677 C184.67555,71.4688652 184.62795,69.5504176 184.571033,67.7648635 C183.652291,70.4817365 182.455197,73.1972732 180.922115,75.8883803 C170.306731,94.5221831 159.200385,113.901338 159.200385,113.901338 C159.171718,113.902245 159.143063,113.902948 159.114423,113.903447 C158.270747,116.3097 157.9902,118.814249 159.611731,120.090423 C160.540577,120.875704 161.575577,121.527887 162.584038,122.20669 C165.596154,124.229789 167.3875,122.699155 167.3875,124.629085 C167.3875,125.494225 163.181154,126.385986 159.97,125.321197 C156.758846,124.256408 153.653846,123.165 153.653846,123.165 C152.865428,122.910434 152.240707,122.30124 151.964774,121.517905 C151.68884,120.73457 151.793338,119.866929 152.247308,119.172042 L153.786538,116.856127 C153.972912,116.577722 154.116081,116.272557 154.211154,115.951056 L155.229222,112.57805 C155.226018,112.575487 155.222815,112.572921 155.219615,112.570352 C155.219615,112.570352 157.077308,104.118592 159.757692,94.2559859 C162.836154,82.9692254 166.737308,69.6859859 165.622692,62.7648592 C164.447211,55.4500569 163.174565,46.7622916 162.419753,39.0782415 C160.425917,37.8398471 159.049691,36.4970667 158.961538,35.7059155 C158.954138,35.6395024 158.948933,35.5511308 158.94587,35.4418429 C159.256779,35.173148 159.447616,34.7731336 159.439231,34.335 C159.410342,33.0471266 159.36903,30.8464428 159.342905,28.1907732 C159.945805,20.4186835 161.173429,8.30429531 162.637108,-0.558764335 C167.403456,-8.97484196 177.702747,-24.7658468 177.949808,-28.8602113 C178.139279,-32.0001862 176.707525,-34.9349638 174.486414,-35.7536699 L180.355785,-34.9488732 C180.383899,-35.1617736 180.422131,-35.3815493 180.470962,-35.6083099 L181.519231,-39.188662 C181.542972,-39.2700251 181.564439,-39.3517981 181.583645,-39.4338913 C179.865001,-39.35983 177.952893,-39.714899 176.981154,-40.3066901 C175.123462,-41.4380282 175.946154,-43.8071831 175.282692,-45.4309859 C174.619231,-47.0547887 171.779615,-49.2642254 173.730192,-51.6466901 C174.647711,-52.9024292 175.186141,-54.3850831 175.297348,-55.9196776 C175.288347,-56.4168595 175.284606,-56.8752328 175.283296,-57.2836167 C175.283096,-57.285768 175.282894,-57.2879192 175.282692,-57.2900704 C175.282853,-57.4243538 175.282692,-57.5531126 175.282692,-57.6760563 C175.282692,-62.2812676 179.794231,-63 185.5,-63 C187.865454,-63 190.165632,-62.039702 192.080149,-60.640141 C192.803851,-60.5587978 193.539754,-60.6222484 194.244423,-60.830493 L197.004423,-61.6690141 C197.668929,-61.7783774 198.34711,-61.5805838 198.849554,-61.1308757 C199.351999,-60.6811676 199.624858,-60.0277431 199.591923,-59.3530986 C199.605484,-59.0959544 199.605484,-58.838271 199.591923,-58.5811268 C199.346267,-56.7033333 198.289273,-55.029104 196.701949,-54.0035428 C196.668938,-53.9822147 196.635768,-53.961212 196.602442,-53.9405355 C196.623752,-53.6296307 196.625155,-53.3169122 196.606346,-53.0042958 C196.691944,-49.7334466 195.818431,-47.2739323 194.400433,-45.4359382 C193.646127,-41.53514 192.688453,-39.0370082 189.799231,-38.4033803 C189.134011,-38.2384625 188.564372,-37.8090469 188.221439,-37.2139804 C187.878505,-36.6189139 187.791823,-35.9094659 187.981346,-35.2489437 L188.26,-34.2240845 C188.281554,-34.10347 188.300295,-33.9810072 188.315801,-33.8574113 L194.669038,-32.9862676 L194.681693,-32.9073698 L194.729635,-32.9007403 C196.106623,-32.9612849 198.468568,-32.4223541 201.635385,-29.3260563 C206.89,-24.1884507 218.115769,-5.07549296 219.203846,0.727605634 C219.794392,3.87719286 211.207293,6.49748897 203.230785,8.23525985 Z M201.58965,1.06879443 C204.910683,-0.513034227 207.609713,-2.06645367 207.739231,-2.98584507 C207.949173,-4.47613954 202.758975,-10.412149 198.40901,-15.3022059 C199.437959,-9.74329657 200.57654,-3.78587894 201.58965,1.06879443 Z M158.94587,35.4418429 C158.873266,35.5045887 158.794114,35.5601734 158.709423,35.6074102 L158.709423,36.9570423 C158.854089,37.6069539 159.149596,38.2134564 159.571923,38.7272535 C159.778597,39.0319398 159.969056,39.3473806 160.1425,39.6722535 C160.328269,40.2179577 160.514038,41.6687324 160.8325,43.0928873 C161.071346,44.1044366 161.416346,44.7033803 161.097885,44.7965493 C160.779423,44.8897183 160.155769,44.5303521 159.770962,43.6519014 C159.492308,43.0662676 159.386154,41.7352817 158.802308,41.7352817 C158.603269,41.7485915 158.430769,42.1345775 158.430769,42.2809859 C157.541731,45.4088028 160.474231,46.8595775 161.005,47.844507 C161.668462,49.0290845 159.996538,48.696338 159.014615,48.2837324 C157.024231,47.471831 155.564615,46.7664085 155.206346,45.6217606 C154.448453,43.6682331 154.28228,41.5337734 154.728654,39.4859155 C155.116107,38.5451659 155.310178,37.5356232 155.299231,36.5178169 L155.299231,35.6240359 Z" fill="#FFECB1" fill-rule="nonzero" style="mix-blend-mode: multiply;" mask="url(#mask-6)" transform="translate(185.116340, 31.407034) scale(-1, 1) translate(-185.116340, -31.407034) "></path>
                        </g>
                        <text id="HELLO" font-family="Rubik-Medium, Rubik" font-size="48" font-weight="400" fill="#FFFFFF" fill-opacity="0.678413723">
                            <tspan x="27.272" y="137">HELLO</tspan>
                        </text>
                        <g id="1" transform="translate(189.500000, 95.000000) scale(-1, 1) translate(-189.500000, -95.000000) translate(155.000000, 0.000000)" fill-rule="nonzero">
                            <polygon id="Shape" fill="#FAB9AF" points="51.6438462 86.3011268 43.6690385 30.0137324 22.1198077 27.0589437 10.9205769 85.8885211"></polygon>
                            <g id="Group-10" transform="translate(0.000000, 172.000000)">
                                <g id="Group-12" transform="translate(41.500000, 7.000000) rotate(10.000000) translate(-41.500000, -7.000000) translate(34.000000, 3.000000)">
                                    <polygon id="Shape" fill="#FFD4B7" points="3.22666667 0.851232877 3.38666667 4.83753425 0.48 5.28931507 0.373333333 0.89109589"></polygon>
                                    <path d="M0.48,5.34246575 C0.48,5.34246575 12.48,3.18986301 14.2266667,4.70465753 C15.9733333,6.21945205 0.266666667,7.46849315 0.266666667,7.46849315 L0.48,5.34246575 Z" id="Shape" fill="#3F327A"></path>
                                </g>
                                <g id="Group-11" transform="translate(8.000000, 9.000000) rotate(-28.000000) translate(-8.000000, -9.000000) translate(3.000000, 2.000000)">
                                    <polygon id="Shape" fill="#FFD4B7" points="7.22666667 2.41835616 3.88 4.62410959 2 2.39178082 5.70666667 0"></polygon>
                                    <path d="M1.94666667,2 C1.94666667,2 9.94666667,11.0489041 9.62666667,13.3609589 C9.30666667,15.6730137 0,2.91684932 0,2.91684932 L1.94666667,2 Z" id="Shape" fill="#3F327A"></path>
                                </g>
                            </g>
                            <path d="M27.6530769,86.8335211 L51.5376923,84.8370423 C51.5376923,84.8370423 53.9394231,102.259648 47.9019231,133.804014 C45.0755769,148.591268 39.1840385,176.861408 39.1840385,176.861408 C37.7899966,177.509973 36.2166093,177.660278 34.7255769,177.287324 C34.7255769,177.287324 34.2744231,164.815986 33.9957692,151.386338 C33.7303846,138.515704 33.6640385,124.76662 32.8413462,120.254577 C31.1561538,111.057465 27.6530769,86.8335211 27.6530769,86.8335211 Z" id="Shape" fill="#3F327A"></path>
                            <path d="M32.5759615,87.1396479 C35.0440385,100.449507 40.5375,120.254577 29.9221154,138.88838 C19.3067308,157.522183 8.20038462,176.901338 8.20038462,176.901338 C6.75783513,176.946983 5.34635151,176.475048 4.21961538,175.570352 C4.21961538,175.570352 6.07730769,167.118592 8.75769231,157.255986 C11.8361538,145.969225 15.7373077,132.685986 14.6226923,125.764859 C12.5394231,112.801056 10.1509615,95.5248592 10.8807692,87.1662676 C11.6105769,78.8076761 31.2888462,80.1652817 32.5759615,87.1396479 Z" id="Shape" fill="#3F327A"></path>
                            <path d="M30.2290788,103 C30.4426013,103.491339 30.5187586,104.031827 30.4493652,104.563372 C30.4196002,105.845896 30.1350011,107.109524 29.612277,108.280067 C29.0820665,109.448293 28.3286343,110.50061 27.3947274,111.377313 C26.6751252,112.02626 26.1317521,112.306487 26.0876948,112.247492 C26.0436375,112.188496 26.4842103,111.790279 27.1010122,111.082337 C27.9129537,110.177571 28.5816178,109.15286 29.0835896,108.044087 C29.5737144,106.928161 29.8954422,105.745086 30.038164,104.533875 C30.0500012,104.017416 30.1139668,103.503494 30.2290788,103 Z" id="Shape" fill="#281D5A" transform="translate(28.279476, 107.627584) rotate(37.000000) translate(-28.279476, -107.627584) "></path>
                            <path d="M52.4665385,84.863662 L43.6690385,30.0137324 L22.1198077,27.0589437 L10.6153846,84.9701408 C10.3853702,86.0321861 11.0563362,87.0804303 12.1148077,87.3126761 C20.1971374,88.8345094 28.3997046,89.6229771 36.6230769,89.6685211 C44.7040385,89.6685211 49.2553846,88.0979577 51.3253846,87.0997183 C52.159796,86.6924772 52.6250843,85.7807589 52.4665385,84.863662 Z" id="Shape" fill="#FFFFFF"></path>
                            <path d="M9.8325,106.092887 C9.51403846,104.668732 9.32826923,103.217958 9.1425,102.672254 C8.96905564,102.347381 8.77859715,102.03194 8.57192308,101.727254 C8.14959558,101.213456 7.85408939,100.606954 7.70942308,99.9570423 L7.70942308,97.5346479 C7.70942308,96.3633803 7.15211538,95.4849296 5.98442308,95.4849296 C4.6575,95.4849296 4.15326923,96.5630282 4.29923077,97.8141549 L4.29923077,99.5178169 C4.31017774,100.535623 4.11610677,101.545166 3.72865385,102.485915 C3.28227967,104.533773 3.44845319,106.668233 4.20634615,108.621761 C4.56461538,109.766408 6.02423077,110.471831 8.01461538,111.283732 C8.99653846,111.696338 10.6684615,112.029085 10.005,110.844507 C9.47423077,109.859577 6.54173077,108.408803 7.43076923,105.280986 C7.43076923,105.134577 7.60326923,104.748592 7.80230769,104.735282 C8.38615385,104.735282 8.49230769,106.066268 8.77096154,106.651901 C9.15576923,107.530352 9.77942308,107.889718 10.0978846,107.796549 C10.4163462,107.70338 10.0713462,107.104437 9.8325,106.092887 Z" id="Shape" fill="#FFD4B7"></path>
                            <path d="M28.8473077,30.4662676 C28.8369138,34.4166057 28.1409455,38.3349691 26.7905769,42.0458451 C24.1367308,49.3130282 20.1559615,63.0488028 22.5576923,75.1474648 C25.9280769,92.5700704 30.2803846,99.6242958 24.6409615,103.683803 C19.0015385,107.74331 8.21365385,100.968592 7.96153846,98.7059155 C7.70942308,96.4432394 10.005,68.6921831 12.7384615,56.6733803 C15.4719231,44.6545775 23.1415385,27.3916901 23.1415385,27.3916901 L26.3792308,27.7377465 C27.7804983,27.8933616 28.8423784,29.0787498 28.8473077,30.4928873 L28.8473077,30.4662676 Z" id="Shape" fill="#CB7DDC"></path>
                            <path d="M18.0328846,60.5598592 C20.0896154,55.3690141 22.4382692,48.8205634 24.2163462,43.8426761 C25.3717733,40.335113 25.8798911,36.6456173 25.7157692,32.9552113 L22.8363462,27.0988732 C22.8363462,27.0988732 15.4719231,44.6545775 12.7384615,56.6733803 C10.005,68.6921831 15.3126923,67.4144366 18.0328846,60.5598592 Z" id="Shape" fill="#AC5ABE"></path>
                            <path d="M18.7228846,28.5496479 C18.7228846,28.5496479 0,53.8516901 0,68.0133803 C0,76.545 3.14480769,93.9276761 3.88788462,97.9339437 C3.98415644,98.4400818 4.39888513,98.8236649 4.90961538,98.8789437 C5.26317221,98.8992419 5.61759702,98.8992419 5.97115385,98.8789437 C6.38859617,98.8671423 6.80503468,98.8315923 7.21846154,98.7724648 C7.92910527,98.6716755 8.45300702,98.0547773 8.43923077,97.335 C8.31980769,92.0110563 7.98807692,71.0879577 9.39461538,66.908662 C11.0001923,62.1038028 26.6446154,39.1975352 26.9498077,34.1397887 C27.255,29.0820423 23.3538462,24.5566901 18.7228846,28.5496479 Z" id="Shape" fill="#CB7DDC"></path>
                            <path d="M37.8173077,29.2816901 C40.2678859,35.5518798 41.1030423,42.3405641 40.2455769,49.0202113 C38.9186538,60.6530282 35.9330769,96.0838732 46.4821154,101.434437 C49.8259615,103.124789 57.4557692,95.631338 57.4557692,92.8495775 C57.4557692,90.0678169 54.9080769,80.7376056 52.4930769,72.2725352 C50.0780769,63.8074648 44.2661538,30.1734507 44.2661538,30.1734507 L37.8173077,29.2816901 Z" id="Shape" fill="#CB7DDC"></path>
                            <path d="M53.3157692,75.1075352 C53.0503846,74.1359155 52.7717308,73.1642958 52.4930769,72.2059859 C52.0286538,70.5555634 51.405,67.9202113 50.7017308,64.7790845 C46.8669231,66.5892254 42.9923077,68.3461268 39.2636538,70.2494366 C38.9767045,72.1523016 38.8391663,74.0748306 38.8523077,75.9992958 C43.6823077,75.8661972 48.5123077,75.5201408 53.3157692,75.1075352 Z" id="Shape" fill="#AC5ABE"></path>
                            <path d="M66.9698077,62.4498592 C66.2665385,60.1605634 62.4582692,61.1188732 58.2651923,62.4498592 C55.7307692,63.1685915 42.5942308,68.2396479 38.4807692,69.8501408 C37.8703846,70.0897183 37.5917308,69.8501408 36.9548077,70.023169 C35.9728846,70.2760563 32.775,71.1811268 33.1730769,75.6399296 C33.2792308,76.8511268 33.8498077,76.9709155 34.3142308,78.0889437 C34.7389889,78.8005289 35.4250311,79.316636 36.225,79.5264085 C37.0344231,79.7926056 37.2998077,80.8573944 37.7111538,80.6976761 C38.6930769,80.4847183 38.5869231,77.7561972 38.5603846,76.8111972 C38.5603846,76.2521831 38.1888462,73.9096479 38.1888462,73.9096479 C38.2948555,73.4689661 38.6474842,73.1308626 39.0911538,73.044507 C42.6605769,72.3523944 58.1457692,69.7303521 60.72,68.9450704 C64.8467308,67.6540141 67.6730769,64.7524648 66.9698077,62.4498592 Z" id="Shape" fill="#FFD4B7"></path>
                            <path d="M24.2826923,5.70992958 C24.4714137,7.71826531 23.9190118,9.72626132 22.7301923,11.3533099 C20.7796154,13.7357746 23.6192308,15.9452113 24.2826923,17.5690141 C24.9461538,19.1928169 24.1234615,21.5619718 25.9811538,22.6933099 C27.8388462,23.8246479 33.1332692,24.0908451 33.9426923,22.1476056 C34.7521154,20.2043662 30.2538462,4.60521127 24.2826923,5.70992958 Z" id="Shape" fill="#5046AF"></path>
                            <path d="M45.6063462,9.99570423 C45.885,20.6435915 35.9994231,22.6933099 30.2538462,22.6933099 C24.5082692,22.6933099 24.2826923,9.92915493 24.2826923,5.32394366 C24.2826923,0.718732394 28.7942308,0 34.5,0 C39.0248077,0 43.3107692,3.51380282 45.1153846,6.89450704 C45.5023928,7.87999876 45.6699578,8.93843576 45.6063462,9.99570423 Z" id="Shape" fill="#5046AF"></path>
                            <path d="M34.8051923,4.11274648 C30.0017308,4.11274648 28.1705769,7.54669014 28.1705769,13.895493 C28.2549358,16.1057353 28.9086698,18.2563648 30.0680769,20.1378169 C30.7162607,21.2477976 30.8794726,22.5767506 30.5192308,23.811338 L29.4709615,27.3916901 C28.7544231,30.7191549 30.3201923,32.5426056 32.6423077,33.2080986 C33.8531826,33.5129947 35.1358808,33.3009665 36.1851923,32.6224648 C37.3794231,31.850493 37.5121154,30.1867606 37.26,28.7759155 L36.9813462,27.7510563 C36.7918233,27.0905341 36.8785052,26.3810861 37.2214388,25.7860196 C37.5643724,25.1909531 38.1340113,24.7615375 38.7992308,24.5966197 C42.5013462,23.7847183 43.0321154,19.9115493 44.0273077,13.9487324 C44.9959615,7.6265493 39.6219231,4.11274648 34.8051923,4.11274648 Z" id="Shape" fill="#FFD4B7"></path>
                            <path d="M46.0044231,1.33098592 L43.2444231,2.16950704 C42.2309577,2.46900715 41.1528884,2.46900715 40.1394231,2.16950704 L34.6326923,0.585633803 C31.3021154,0.585633803 25.7953846,2.4756338 26.4853846,7.24056338 L27.1090385,10.6611972 C27.3343541,12.042805 28.4653495,13.0950562 29.8557692,13.2166901 C29.9868388,13.6887521 30.4155066,14.0153195 30.9040385,14.0152817 C31.4976384,14.0152817 31.9788462,13.5326005 31.9788462,12.9371831 C31.9760143,11.413736 33.0210763,10.0896158 34.5,9.7428169 C36.4203932,9.25604466 38.4313376,9.25604466 40.3517308,9.7428169 C42.1578088,10.2949959 44.1146254,10.0220184 45.7019491,8.9964572 C47.2892728,7.97089595 48.3462669,6.29666666 48.5919231,4.41887324 C48.6054838,4.16172905 48.6054838,3.9040456 48.5919231,3.64690141 C48.6248579,2.97225694 48.3519992,2.31883243 47.8495544,1.8691243 C47.3471096,1.41941618 46.6689289,1.22162264 46.0044231,1.33098592 Z" id="Shape" fill="#5046AF"></path>
                            <path d="M30.7713462,14.0152817 C30.7713462,15.4793662 30.2273077,16.6772535 28.8075,16.6772535 C27.3876923,16.6772535 26.5384615,14.6408451 26.5384615,13.1767606 C26.5384615,11.7126761 27.4540385,11.3533099 28.8605769,11.3533099 C30.2671154,11.3533099 30.7713462,12.5378873 30.7713462,14.0152817 Z" id="Shape" fill="#FFD4B7"></path>
                            <path d="M42.5411538,18.4208451 C42.6089732,18.7459289 42.5273825,19.0843685 42.3189737,19.342451 C42.110565,19.6005336 41.7974562,19.7508694 41.4663462,19.751831 C40.8804278,19.759696 40.3935315,19.3007298 40.365,18.713662 L40.365,14.0152817 C40.3720594,13.6507134 40.6650061,13.3568697 41.0284615,13.3497887 C41.2779293,13.3559106 41.4912586,13.5314859 41.5459615,13.7757042 L42.5411538,18.4208451 Z" id="Shape"></path>
                            <path d="M42.3421154,30.4396479 C42.3421154,30.4396479 45.3807692,28.536338 50.6353846,33.6739437 C55.89,38.8115493 67.1157692,57.924507 68.2038462,63.7276056 C69.2919231,69.5307042 39.2238462,73.5369718 39.2238462,73.5369718 C38.2693376,72.3795332 37.7691529,70.9122501 37.8173077,69.4109155 C37.8173077,69.4109155 56.3942308,62.463169 56.7392308,60.0141549 C57.0842308,57.5651408 42.8463462,43.1106338 41.7184615,41.0209859 C39.6882692,37.2676056 38.9319231,33.2746479 42.3421154,30.4396479 Z" id="Shape" fill="#CB7DDC"></path>
                            <path d="M34.5,71.2343662 C34.5,71.2343662 30.9173077,74.5085915 30.7978846,74.7880986 C30.5325,75.3870423 31.1694231,76.0259155 31.6338462,75.5201408 C32.2707692,74.8014085 34.1948077,73.9096479 34.8184615,74.9211972 L34.5,71.2343662 Z" id="Shape" fill="#FFD4B7"></path>
                            <path d="M40.1707031,99.9597656 C41.7513672,107.688086 37.1017982,124.836719 33.6681641,130.812695 C34.8522229,127.983783 40.7052734,111.4625 40.1707031,99.9597656 Z" id="Shape" fill="#281D5A"></path>
                        </g>
                    </g>
                    <g id="1-copy" transform="translate(731.500000, 181.500000) scale(-1, 1) translate(-731.500000, -181.500000) translate(697.000000, 87.000000)"></g>
                    <g id="Ресурс-5" transform="translate(278.000000, 92.000000)" fill-rule="nonzero">
                        <path d="M85.3333333,33.8665354 C85.3333333,33.8665354 87.0266667,28.1844094 87.3866667,28.1844094 C88.4533333,28.1844094 87.7466667,31.1785039 87.7466667,31.1785039 C87.7466667,31.1785039 91.3066667,26.121811 92,26.6141732 C92.4533333,26.9335433 90.76,29.9409449 90.76,29.9409449 C90.76,29.9409449 93.0266667,27.7985039 93.6933333,28.1844094 C94.36,28.570315 91.7733333,31.5777165 91.7733333,31.5777165 C91.7733333,31.5777165 93.56,30.2470079 94.1466667,30.6994488 C94.7333333,31.1518898 87.68,37.2598425 87.68,37.2598425 L85.3333333,33.8665354 Z" id="Shape" fill="#F7D3A9"></path>
                        <path d="M85.3333333,33.8665354 C85.3333333,33.8665354 87.0266667,28.1844094 87.3866667,28.1844094 C88.4533333,28.1844094 87.7466667,31.1785039 87.7466667,31.1785039 C87.7466667,31.1785039 91.3066667,26.121811 92,26.6141732 C92.4533333,26.9335433 90.76,29.9409449 90.76,29.9409449 C90.76,29.9409449 93.0266667,27.7985039 93.6933333,28.1844094 C94.36,28.570315 91.7733333,31.5777165 91.7733333,31.5777165 C91.7733333,31.5777165 93.56,30.2470079 94.1466667,30.6994488 C94.7333333,31.1518898 87.68,37.2598425 87.68,37.2598425 L85.3333333,33.8665354 Z" id="Shape" fill="#FFD4B7"></path>
                        <polygon id="Shape" fill="#FFD4B7" points="49.0133333 161.654488 49.1733333 165.646614 46.2666667 166.085748 46.1466667 161.681102"></polygon>
                        <path d="M46.2666667,166.085748 C46.2666667,166.085748 58.2666667,163.93 60.0133333,165.460315 C61.76,166.99063 46.04,168.214882 46.04,168.214882 L46.2666667,166.085748 Z" id="Shape" fill="#3F327A"></path>
                        <polygon id="Shape" fill="#FFD4B7" points="7.16 147.602205 3.82666667 149.824488 1.93333333 147.575591 5.65333333 145.193622"></polygon>
                        <path d="M1.93333333,147.575591 C1.93333333,147.575591 10,156.637717 9.62666667,158.966457 C9.25333333,161.295197 0,148.49378 0,148.49378 L1.93333333,147.575591 Z" id="Shape" fill="#3F327A"></path>
                        <path d="M53.7333333,62.2638583 C53.7333333,62.2638583 63.7733333,71.5788189 63.9333333,105.804646 C64.0933333,140.030472 52.12,162.865433 52.12,162.865433 L43.6666667,162.865433 C43.6666667,162.865433 57.5333333,119.76378 41.96,91.2333858 C37.3238965,113.703612 25.8724431,134.205963 9.16,149.957559 L2.49333333,142.878189 C2.49333333,142.878189 22.8266667,117.368504 23,85.4714173 C23,79.1638583 24.0933333,75.9568504 21.88,68.8907874 L53.7333333,62.2638583 Z" id="Shape" fill="#624FB5"></path>
                        <path d="M57.92,123.609528 C57.92,123.755906 56.1733333,123.715984 54.0666667,123.968819 C51.96,124.221654 50.28,124.687402 50.2266667,124.541024 C51.3870436,123.900701 52.6763697,123.527851 54,123.449843 C55.3021242,123.208906 56.6418815,123.263482 57.92,123.609528 Z" id="Shape" fill="#232049"></path>
                        <path d="M59.0133333,120.828346 C59.0133333,120.828346 58.6666667,121.227559 57.9466667,121.600157 C56.9925228,122.087052 55.9581696,122.398099 54.8933333,122.518346 C53.8284308,122.644826 52.74949,122.581749 51.7066667,122.332047 C51.2616127,122.269358 50.8396557,122.095414 50.48,121.826378 C51.9203435,122.018851 53.3755403,122.076766 54.8266667,121.99937 C56.2592735,121.755599 57.6624444,121.363128 59.0133333,120.828346 Z" id="Shape" fill="#232049"></path>
                        <path d="M27.6133333,117.368504 C26.516585,116.973144 25.5798912,116.229938 24.9466667,115.252677 C24.1684979,114.391032 23.6994535,113.295629 23.6133333,112.138819 C23.76,112.138819 24.24,113.469528 25.32,114.933307 C26.4,116.397087 27.6933333,117.235433 27.6133333,117.368504 Z" id="Shape" fill="#232049"></path>
                        <path d="M26.8666667,118.246772 C26.7866667,118.246772 26.68,117.98063 26.3066667,117.714488 C25.9333333,117.448346 25.3333333,117.102362 24.6666667,116.716457 C23.8230574,116.319627 23.0379646,115.809202 22.3333333,115.199449 C23.2706116,115.349624 24.1604325,115.71396 24.9333333,116.264016 C25.5195947,116.589495 26.0655519,116.982525 26.56,117.435039 C26.9466667,117.847559 26.9333333,118.246772 26.8666667,118.246772 Z" id="Shape" fill="#232049"></path>
                        <path d="M49.6933333,93.8548819 C48.9538184,93.9199982 48.2093253,93.8105954 47.52,93.5355118 C45.881917,92.9150824 44.287247,92.1860012 42.7466667,91.3531496 C40.9333333,90.4349606 39.2933333,89.5833071 38.12,88.9312598 C37.4606487,88.6375077 36.8385271,88.2667562 36.2666667,87.8267717 C36.9678137,88.016242 37.6437285,88.2887561 38.28,88.6385039 C39.4933333,89.1974016 41.16,89.9692126 42.9866667,90.9140157 C44.8133333,91.8588189 46.4266667,92.7237795 47.6533333,93.2161417 C48.88,93.7085039 49.6933333,93.7617323 49.6933333,93.8548819 Z" id="Shape" fill="#232049"></path>
                        <path d="M16.4533333,29.1558268 L22.3333333,74.519685 L59.2666667,74.9854331 L53.7466667,40.8261417 C53.7466667,40.8261417 72,58.1253543 80,50.9528346 C88,43.780315 89.2533333,36.6477165 89.2533333,36.6477165 L84.92,33.6802362 C84.92,33.6802362 78.2533333,46.2155118 72.32,42.2766142 C65.6533333,37.8453543 50.5066667,19.7344094 36.32,21.9833071 C26.8533333,23.4737008 17.9066667,18.2174016 16.4533333,29.1558268 Z" id="Shape" fill="#FE9887"></path>
                        <path d="M38.2666667,2.23559055 L41.6666667,11.0049606 C42.0308954,11.9399634 42.0062792,12.9813595 41.5982777,13.8981803 C41.1902762,14.8150011 40.4326148,15.5314622 39.4933333,15.8886614 L38.3333333,16.3411024 L38.8933333,22.7684252 L29.92,23.5402362 L28.3466667,5.40267717 L38.2666667,2.23559055 Z" id="Shape" fill="#FFD4B7"></path>
                        <path d="M33.3333333,18.7896063 C33.3333333,18.7896063 36.7733333,15.7955118 36.48,13.1340945 C36.48,13.1340945 31.4133333,11.0315748 32.7866667,9.56779528 C34.16,8.10401575 37.0666667,10.6456693 37.0666667,10.6456693 C37.0666667,10.6456693 35.04,6.81322835 35.4933333,5.72204724 C35.4933333,5.72204724 42.0533333,5.14984252 40.6666667,1.38393701 C38.8169089,0.298465212 36.6676815,-0.167838406 34.5333333,0.0532283465 C30.3866667,0.172992126 28.72,7.33220472 28.72,7.33220472 L33.3333333,18.7896063 Z" id="Shape" fill="#624FB5"></path>
                        <path d="M35.1866667,0.465748031 C31.2420927,-0.544607766 27.0512272,0.38486241 23.9066667,2.96748031 C20.8004717,5.5991603 19.1489137,9.55905686 19.4666667,13.6131496 C19.6933333,16.4209449 20.8,19.3351969 19.76,21.9167717 C19.119623,23.2032022 18.2102924,24.3376279 17.0933333,25.2435433 C13.8453122,27.9451863 10.9073714,30.9978434 8.33333333,34.3455906 C5.74488735,37.7368369 4.56108443,41.991091 5.02666667,46.2288189 C5.28198527,48.0113408 6.01955904,49.6906187 7.16,51.0859055 C7.80764979,51.7662099 8.4174532,52.4814295 8.98666667,53.2283465 C10.9066667,55.9829134 9.82666667,59.8818898 11,63.0090551 C12.52,67.0011811 17.2666667,68.8641732 21.5733333,69.29 C27.48,69.8888189 33.84,68.6512598 38.1866667,64.6192126 C42.5333333,60.5871654 44.16,53.4146457 40.8533333,48.5176378 C39.2,46.1090551 36.3733333,43.9799213 36.6533333,41.0523622 C36.8266667,39.2425984 38.1866667,37.8054331 38.9866667,36.1553543 C40.5278999,32.7216289 39.5462083,28.6821751 36.6,26.3347244 C35.5333333,25.5229921 34.2533333,25.0040157 33.2666667,24.0725197 C32.1682693,23.2263674 31.7381304,21.7721402 32.2,20.4662992 C32.6533333,19.5348031 33.7333333,19.0291339 34.2,18.124252 C34.92,16.7935433 34.0533333,15.0902362 33.04,13.9059055 C32.0266667,12.7215748 30.7733333,11.5771654 30.6266667,10.0335433 C30.6174927,8.83674045 30.9555336,7.66285869 31.6,6.65354331 L34.84,0.505669291" id="Shape" fill="#624FB5"></path>
                    </g>
                    <g id="Ресурс-5-Copy" transform="translate(281.000000, 91.000000)"></g>
                    <g id="Group-14" transform="translate(311.000000, 182.000000)">
                        <ellipse id="Oval-2" fill="#FFFFFF" cx="157" cy="69" rx="5" ry="4"></ellipse>
                        <ellipse id="Oval-3" fill="#FFFFFF" cx="165" cy="77" rx="4" ry="3"></ellipse>
                        <ellipse id="Oval-4" fill="#FFFFFF" cx="175" cy="84.5" rx="2" ry="1.5"></ellipse>
                        <path d="M120.487305,62.7280273 C115.187988,65.9121094 102.935059,65.9121094 98.3442383,54.6547852 C94.2978516,56.6259766 83.7661133,56.6259766 85.0981445,42.2866211 C78.4702148,40.5029297 73.6118164,30.5620117 81.140625,27.2563477 C76.9584961,19.9702148 86.4301758,9.39257812 94.2978516,9.39257812 C101.0625,-2.76269531 116.050293,-0.900390625 123.224609,3.59179687 C134.606445,-3.61181641 148.655273,2.00488281 150.040527,10.8696289 C161.460449,5.13769531 170.999023,14.5146484 168.158691,24.4838867 C178.921875,29.4785156 175.125488,42.2866211 162.357422,43.206543 C165.318359,47.3623047 162.148438,56.2202148 153.990723,56.2202148 C153.990723,59.1796875 150.040527,66.8994141 142.98584,63.4160156 C138.353027,67.6435547 130.398926,70.6118164 120.487305,62.7280273 Z" id="Path-3" fill="#FFFFFF"></path>
                        <g id="2" transform="translate(0.000000, 67.000000)" fill-rule="nonzero">
                            <path d="M223.502979,68.6838819 C221.846366,69.1810601 220.285799,69.9564995 218.88766,70.9772152 C218.238642,71.5486524 217.391406,71.8406664 216.529362,71.7900422 C215.892766,71.7900422 215.212766,71.7900422 214.489362,71.7900422 C214.032733,71.7861764 213.593278,71.9644576 213.267679,72.2856627 C212.942081,72.6068677 212.757013,73.0446826 212.753191,73.5027848 C212.754499,74.0108592 212.978714,74.4925867 213.36617,74.8197706 C213.753625,75.1469544 214.265017,75.2864053 214.764255,75.2010127 C215.688721,74.9932152 216.593843,74.7067206 217.469787,74.3446414 C217.905391,74.1919807 218.379715,74.1919807 218.815319,74.3446414 C220.289589,74.665312 221.830252,74.3435247 223.054468,73.4592405 C223.874419,73.2623393 224.67017,72.9751393 225.427234,72.6028692 C225.890213,72.3416034 226.483404,72.3706329 226.51234,72.0222785 C226.541277,71.6739241 225.875745,71.3400844 225.297021,71.4126582 C224.284255,71.5578059 222.808511,71.9932489 222.548085,71.6013502 C222.28766,71.2094515 223.445106,70.5853165 224.848511,70.1498734 C226.251915,69.7144304 228.190638,71.1368776 229.188936,69.7870042 C229.377021,69.3370464 225.065532,68.0742616 223.502979,68.6838819 Z" id="Shape" fill="#FFD4B7"></path>
                            <path d="M263.579574,53.5740084 C262.857104,53.3975217 262.11892,53.7991844 261.87234,54.5029536 L254.146383,77.4217722 C253.884975,78.1905172 254.127269,79.0412828 254.754043,79.555443 L256.562553,81.0069198 L265.836596,54.1255696 L263.579574,53.5740084 Z" id="Shape" fill="#D2F0FF"></path>
                            <path d="M211.234043,58.0590717 C212.628833,54.1827134 211.802026,49.8516305 209.078298,46.7665823 C206.835907,44.194493 205.552437,40.9216007 205.446809,37.5061603 C205.274456,31.949685 201.734744,27.0632796 196.52,25.1831224 C193.771064,24.1961181 185.726809,21.5254008 185.726809,21.5254008 C185.726809,21.5254008 189.806809,18.7675949 186.01617,18.5498734 C182.905532,18.390211 177.060426,21.3657384 176.279149,28.2021941 C175.975228,30.5188533 175.132707,32.7313918 173.819574,34.6612658 C172.940856,36.0660513 172.377998,37.6461483 172.170213,39.2914768 C171.516465,43.9560697 173.825109,48.5361453 177.957447,50.7726582 L178.579574,51.0919831 C183.625778,53.5903004 186.087613,59.4189786 184.366809,64.7939241 C183.441006,67.0583584 183.573698,69.619582 184.728511,71.7755274 C187.176134,75.4966456 191.600526,77.3939897 195.972993,76.5975799 C200.345459,75.8011701 203.82266,72.4646139 204.810213,68.1178059 C205.17901,66.1955199 206.201819,64.4613964 207.70383,63.2118143 C209.347046,61.8678152 210.572105,60.079704 211.234043,58.0590717 Z" id="Shape" fill="#827DDC"></path>
                            <path d="M179.259574,55.1561181 C178.746633,52.3647344 179.017125,49.4852558 180.040851,46.8391561 C180.735319,45.1264135 181.791489,43.4862447 183.354043,43.2104641 C186.508085,42.6298734 194.928511,63.8504641 196.491064,68.3790717 C196.668329,68.9328644 197.158008,69.3270139 197.735319,69.3805907 L215.212766,71.2965401 C215.878306,72.5389382 216.024051,73.9958592 215.617872,75.3461603 L195.594043,78.5248945 C193.996323,78.799687 192.367447,78.2549763 191.253617,77.0734177 C187.824681,73.3721519 180.851064,64.8519831 179.259574,55.1561181 Z" id="Shape" fill="#41378C"></path>
                            <path d="M34.2459574,79.8312236 C34.1854914,78.6983165 33.3035409,77.7825834 32.1770213,77.683038 C29.1893621,77.5179568 26.2659504,76.7477148 23.5829787,75.4187342 C19.5753191,73.0818565 18.4757447,73.8075949 15.4953191,76.870211 C12.5148936,79.932827 8.16,80.1070042 5.5412766,80.4553586 C2.92255319,80.8037131 1.89531915,82.7341772 6.00425532,82.8648101 C9.73702128,82.9518987 22.6859574,80.8472574 31.6995745,82.1390717 C32.3551665,82.2294268 33.0170662,82.0246816 33.5081075,81.5796391 C33.9991489,81.1345965 34.2691924,80.494699 34.2459574,79.8312236 Z" id="Shape" fill="#FFD4B7"></path>
                            <path d="M65.2510638,23.5284388 C65.66946,22.8529176 65.66946,21.9977153 65.2510638,21.3221941 C63.5178002,18.5945878 62.3697396,15.5347487 61.88,12.3375527 C61.5038298,7.72185654 60.2885106,7.22835443 56.092766,6.53164557 C51.8970213,5.83493671 49.9148936,3.14970464 48.1497872,1.20472574 C46.3846809,-0.740253165 44.0987234,-0.435443038 46.3702128,3.00455696 C48.3668085,6.03814346 57.2212766,15.1679325 61.6774468,23.3978059 C62.0304721,24.0421017 62.6949628,24.4529365 63.4273329,24.4797081 C64.1597029,24.5064798 64.852235,24.1452507 65.2510638,23.5284388 Z" id="Shape" fill="#FFD4B7"></path>
                            <path d="M195.782128,29.4359494 C192.599149,38.3189873 184.497021,37.651308 179.548936,35.8659916 C174.600851,34.0806751 177.595745,26.8523207 178.955745,23.0349367 C180.315745,19.2175527 185.26383,17.4612658 190.211915,19.2465823 C195.16,21.0318987 197.156596,25.6185654 195.782128,29.4359494 Z" id="Shape" fill="#827DDC"></path>
                            <path d="M60.1293617,21.4383122 C61.0057833,19.8302235 62.7523007,18.8999274 64.5710638,19.0724051 C64.5710638,19.0724051 85.1880851,50.0469198 89.7021277,54.038481 C94.2161702,58.0300422 135.594894,55.8237975 135.594894,55.8237975 L136.289362,78.3797468 C136.289362,78.3797468 92.2629787,79.2941772 81.0212766,67.5227004 C69.7795745,55.7512236 60.1293617,21.4383122 60.1293617,21.4383122 Z" id="Shape" fill="#827DDC"></path>
                            <path d="M135.580426,55.8237975 C135.580426,55.8237975 126.045957,56.3318143 115.628936,56.418903 C114.963404,56.7527426 99.4102128,64.4020253 91.0331915,64.7213502 C78.6485106,65.2003376 74.7855319,58.5670886 74.7855319,58.5670886 C76.4982147,61.7926063 78.5918703,64.7994592 81.0212766,67.5227004 C92.2629787,79.2941772 136.289362,78.3797468 136.289362,78.3797468 L135.580426,55.8237975 Z" id="Shape" fill="#6E64C3"></path>
                            <path d="M153.361702,80.0199156 L150.005106,58.6251477 C150.005106,58.6251477 143.031489,50.2791561 125.134468,55.5625316 C107.237447,60.8459072 95.7497872,67.3049789 86.9965957,68.2194093 C78.2434043,69.1338397 30.7591489,76.92827 30.7591489,76.92827 C29.8556124,78.6807229 29.8556124,80.7640029 30.7591489,82.5164557 L126.248511,83.0535021 C126.248511,83.0535021 144.188936,83.1551055 153.361702,80.0199156 Z" id="Shape" fill="#827DDC"></path>
                            <path d="M182.963404,42.470211 L182.717447,42.3395781 C177.467195,39.5818918 171.096139,40.1490269 166.411915,43.7910549 L165.630638,44.4587342 L158.81617,50.6420253 C157.706481,51.6564209 156.348594,52.3575883 154.880851,52.6740928 C153.847479,52.8709838 152.848291,53.2181604 151.914894,53.7046414 L151.828085,53.7046414 C148.934468,55.2867511 147.48766,52.2531646 146.2,53.7046414 C144.91234,55.1561181 136.332766,52.7611814 136.332766,52.7611814 C136.332766,52.7611814 128.085957,52.7611814 132.29617,64.2568776 C136.506383,75.7525738 144.405957,82.7632068 149.918298,82.7632068 C152.971064,82.7632068 158.222979,80.3247257 162.331915,78.1475105 C162.775551,77.9160453 163.196917,77.6439461 163.590638,77.3346835 C164.958964,76.2680675 166.481054,75.4164705 168.104681,74.8091139 L169.363404,74.3736709 C171.543586,73.6155415 173.920202,73.6515113 176.076596,74.4752743 C178.970213,75.5638819 183.310638,75.9267511 184.931064,70.236962 L186.638298,48.7551055 C186.739574,46.8536709 184.757447,43.0508017 182.963404,42.470211 Z" id="Shape" fill="#5046AF"></path>
                            <path d="M177.566809,43.6894515 C175.960851,44.284557 173.660426,47.0713924 171.880851,49.4953586 C170.326299,51.6980483 169.052843,54.0873869 168.090213,56.6075949 C164.892766,64.547173 159.409362,71.8335865 151.94383,76.0283544 C148.814293,77.8520289 145.275305,78.850737 141.657021,78.931308 C144.550638,81.4713924 147.444255,82.8502954 149.874894,82.8502954 C152.92766,82.8502954 158.179574,80.4118143 162.288511,78.2345992 C162.732147,78.003134 163.153513,77.7310347 163.547234,77.4217722 C164.915559,76.3551561 166.43765,75.5035591 168.061277,74.8962025 L169.32,74.4607595 C171.500182,73.7026301 173.876798,73.7386 176.033191,74.5623629 C178.926809,75.6509705 183.267234,76.0138397 184.88766,70.3240506 L186.638298,48.7551055 C186.452956,46.9272523 185.73315,45.1951535 184.569362,43.7765401 C182.360277,42.7211757 179.801292,42.6893504 177.566809,43.6894515 Z" id="Shape" fill="#41378C"></path>
                            <path d="M190.168511,21.9172996 C185.538723,20.1610127 182.572766,22.8172152 180.185532,28.8843882 C179.469869,31.0449945 179.315497,33.3530537 179.737021,35.590211 C179.95737,36.8951988 179.632986,38.2336633 178.84,39.2914768 L176.510638,42.3540928 C174.615319,45.2570464 175.468936,47.6229536 177.465532,49.1034599 C178.516769,49.842611 179.826723,50.1107038 181.082553,49.8437131 C182.529362,49.5243882 183.209362,47.9567932 183.498723,46.5198312 L183.614468,45.4457384 C183.672745,44.7395449 184.012908,44.0869148 184.557752,43.6359678 C185.102596,43.1850208 185.805915,42.9740012 186.508085,43.0508017 C187.636596,43.2249789 188.620426,43.8200844 189.575319,43.5733333 C190.530213,43.3265823 194.436596,38.4786498 195.796596,32.2953586 C197.156596,26.1120675 194.798298,23.6735865 190.168511,21.9172996 Z" id="Shape" fill="#FFD4B7"></path>
                            <path d="M191.629787,38.2609283 C191.562468,38.5974963 191.346571,38.8852456 191.042805,39.043262 C190.73904,39.2012783 190.380216,39.212494 190.067234,39.0737553 C189.50765,38.8335038 189.238807,38.191335 189.459574,37.6222785 L191.38383,33.1952743 C191.458669,33.0307342 191.593181,32.9009783 191.76,32.8324051 C191.927595,32.7675263 192.113256,32.7675263 192.280851,32.8324051 C192.515799,32.9361465 192.64792,33.1891897 192.599149,33.4420253 L191.629787,38.2609283 Z" id="Shape"></path>
                            <path d="M200.97617,23.4994093 C200.085538,22.8896197 199.012113,22.6075775 197.937872,22.701097 C195.477659,22.9798096 192.986479,22.7274134 190.631489,21.9608439 L190.313191,21.8447257 C187.728557,20.9137232 184.894224,20.9601684 182.341277,21.9753586 C181.436144,22.3322617 180.722669,23.0550588 180.375764,23.9665515 C180.028859,24.8780442 180.080598,25.8939568 180.518298,26.7652321 L182.16766,30.0891139 C182.274396,30.2925221 182.490706,30.4135994 182.719303,30.3978915 C182.947901,30.3821836 183.145735,30.2326489 183.22383,30.0165401 L183.744681,28.5650633 C184.008732,27.8351111 184.765681,27.4091113 185.524255,27.5635443 L186.276596,27.708692 C187.155829,27.8611756 188.056866,27.8315381 188.924255,27.6216034 C190.125489,27.3567406 191.380826,27.5103243 192.483404,28.0570464 C193.292653,28.4827231 193.972428,29.1195613 194.451064,29.9004219 C194.999473,30.7472198 195.814269,31.3858333 196.765957,31.7147679 C198.962905,32.5191712 201.413344,31.5592123 202.485595,29.4741019 C203.557846,27.3889916 202.917368,24.8292798 200.990638,23.4994093 L200.97617,23.4994093 Z" id="Shape" fill="#827DDC"></path>
                            <path d="M182.008511,30.6987342 C181.473191,32.150211 180.764255,33.8919831 179.52,33.4129958 C178.275745,32.9340084 178.073191,29.9004219 178.550638,28.4779747 C179.028085,27.0555274 179.997447,27.0264979 181.241702,27.4909705 C182.485957,27.955443 182.529362,29.2908017 182.008511,30.6987342 Z" id="Shape" fill="#FFD4B7"></path>
                            <path d="M265.851064,52.4854008 C264.858184,52.3589544 263.920505,52.9737937 263.637447,53.9368776 L254.638298,79.6715612 C254.526161,79.9776055 254.23977,80.1844723 253.914894,80.1940928 L231.2,80.1940928 C230.491456,80.1902296 229.810611,80.4699015 229.308232,80.9711775 C228.805852,81.4724535 228.523394,82.1539698 228.523404,82.8648102 L256.403404,82.8648101 C257.157741,82.8650223 257.830257,82.3880892 258.081702,81.6745992 L267.384681,55.0690295 C267.570963,54.5212149 267.508201,53.9189819 267.213001,53.4216693 C266.917801,52.9243567 266.419911,52.5820807 265.851064,52.4854008 Z" id="Shape" fill="#41378C"></path>
                            <path d="M252.482553,81.5439662 C252.482679,81.7869113 252.290548,81.9860871 252.048511,81.9939241 L249.386383,81.9939241 C249.173119,81.955025 249.018102,81.768683 249.018102,81.5512236 C249.018102,81.3337643 249.173119,81.1474223 249.386383,81.1085232 L252.048511,81.1085232 C252.285043,81.116062 252.475039,81.3066705 252.482553,81.5439662 Z" id="Shape" fill="#827DDC"></path>
                            <path d="M247.187234,81.5439662 C247.193115,81.8093879 247.038271,82.0519738 246.79551,82.1576604 C246.552749,82.263347 246.270375,82.2111048 246.081161,82.025498 C245.891946,81.8398912 245.83354,81.5578518 245.933406,81.3119943 C246.033271,81.0661369 246.271537,80.905382 246.53617,80.9053165 C246.890168,80.9052288 247.179367,81.1889143 247.187234,81.5439662 Z" id="Shape" fill="#827DDC"></path>
                            <path d="M245.074894,81.5439662 C245.080739,81.8106976 244.924296,82.0541836 244.679734,82.1589849 C244.435173,82.2637862 244.151662,82.2088334 243.963615,82.0201803 C243.775569,81.8315272 243.720793,81.5471007 243.825257,81.3017506 C243.929722,81.0564005 244.172424,80.8994521 244.438298,80.9053165 C244.786658,80.9130002 245.067235,81.1944819 245.074894,81.5439662 Z" id="Shape" fill="#827DDC"></path>
                            <path d="M253.191489,80.1940928 L231.778723,80.1940928 C231.774838,79.991413 231.852383,79.7956848 231.993898,79.6509834 C232.135412,79.506282 232.328999,79.4247726 232.531064,79.4248101 L252.424681,79.4248101 C252.628051,79.4248101 252.823092,79.5058593 252.966896,79.6501278 C253.110701,79.7943963 253.191489,79.9900664 253.191489,80.1940928 Z" id="Shape" fill="#827DDC"></path>
                            <path d="M230.462128,77.7265823 C229.796596,78.0459072 229.015319,78.3652321 228.306383,78.7861603 C227.239179,79.4220181 225.996472,79.6968045 224.761702,79.5699578 C223.662128,79.4828692 222.302128,79.4248101 220.710638,79.4102954 C219.813519,79.4071124 219.064319,80.0955683 218.988936,80.9924051 C218.957286,81.4641944 219.118197,81.9286177 219.434708,82.2789983 C219.751219,82.6293789 220.196126,82.8356007 220.667234,82.8502954 C222.114043,82.8502954 223.358298,82.7632068 224.240851,82.748692 C224.674894,82.748692 225.051064,82.748692 225.369362,82.748692 C225.959052,82.661606 226.557912,82.6567215 227.148936,82.7341772 C228.473212,82.7216228 229.66748,81.9323389 230.201702,80.7166245 C230.664681,79.7586498 230.722553,80.0199156 231.836596,79.5699578 C232.950638,79.12 236.177021,79.7876793 236.177021,79.0183966 C236.177021,78.2491139 231.966809,77.0008439 230.462128,77.7265823 Z" id="Shape" fill="#FFD4B7"></path>
                            <path d="M170.274894,44.4877637 C171.446809,42.4121519 175.121702,40.0027004 179.737021,45.5473418 C185.857021,52.9063291 196.52,73.6479325 199.688511,73.9962869 C202.857021,74.3446414 223.633191,79.1054852 223.633191,79.1054852 C224.169849,80.2957025 224.169849,81.6600781 223.633191,82.8502954 L195.000851,82.8502954 C189.879149,82.8648101 164.93617,54.038481 170.274894,44.4877637 Z" id="Shape" fill="#5046AF"></path>
                        </g>
                        <text id="?" transform="translate(123.500000, 32.500000) rotate(-12.000000) translate(-123.500000, -32.500000) " font-family="Rubik-Medium, Rubik" font-size="48" font-weight="400" fill="#CFDCF5">
                            <tspan x="109.964" y="49">?</tspan>
                        </text>
                    </g>
                </g>
            </g>
        </g>
    </g>
</svg>