<svg xmlns="http://www.w3.org/2000/svg" width="20" height="20" viewBox="0 0 20 20">
  <path fill="#FFC472" d="M10,0.00139240506 C15.5220785,0.00139240506 19.9986076,4.47792151 19.9986076,10 C19.9986076,15.5220785 15.5220785,19.9986076 10,19.9986076 C4.47792151,19.9986076 0.00139240506,15.5220785 0.00139240506,10 C0.00139240506,4.47792151 4.47792151,0.00139240506 10,0.00139240506 Z M4.92037975,13.891308 C7.69544304,16.7592405 12.247173,16.7748523 15.0429536,13.9291983 C15.3998734,13.5659072 14.8419409,13.0075105 14.4848101,13.371097 C11.9835021,15.9166245 7.95894515,15.8965823 5.47848101,13.3332068 C5.12405063,12.9667511 4.5664135,13.525654 4.92037975,13.891308 Z M6.96080169,4.98097046 C6.09355151,4.98097046 5.39050633,5.68401564 5.39050633,6.55126582 C5.39050633,7.418516 6.09355151,8.12156118 6.96080169,8.12156118 C7.82805187,8.12156118 8.53109705,7.418516 8.53109705,6.55126582 C8.53109705,5.68401564 7.82805187,4.98097046 6.96080169,4.98097046 Z M12.8987342,4.98097046 C12.031484,4.98097046 11.3284388,5.68401564 11.3284388,6.55126582 C11.3284388,7.418516 12.031484,8.12156118 12.8987342,8.12156118 C13.7659844,8.12156118 14.4690295,7.418516 14.4690295,6.55126582 C14.4690295,5.68401564 13.7659844,4.98097046 12.8987342,4.98097046 Z"/>
</svg>
