<svg xmlns="http://www.w3.org/2000/svg" width="26" height="26" viewBox="0 0 26 26">
    <g fill="none" fill-rule="nonzero">
        <path fill="#FBBB00" d="M6.215 15.542l-.848 3.167-3.1.066A12.131 12.131 0 0 1 .813 13c0-2.02.492-3.926 1.363-5.604l2.76.506 1.21 2.744A7.244 7.244 0 0 0 5.756 13c0 .895.162 1.752.46 2.542z"/>
        <path fill="#518EF8" d="M24.973 10.724a12.209 12.209 0 0 1-.054 4.82 12.183 12.183 0 0 1-4.29 6.959l-3.478-.178-.492-3.072a7.263 7.263 0 0 0 3.125-3.709h-6.516v-4.82h11.705z"/>
        <path fill="#28B446" d="M20.628 22.502v.001A12.134 12.134 0 0 1 13 25.186c-4.64 0-8.675-2.594-10.734-6.411l3.95-3.233a7.246 7.246 0 0 0 10.443 3.711l3.97 3.25z"/>
        <path fill="#F14336" d="M20.778 3.62L16.831 6.85a7.248 7.248 0 0 0-10.683 3.794l-3.97-3.25h-.001A12.183 12.183 0 0 1 13 .816c2.957 0 5.668 1.052 7.778 2.805z"/>
    </g>
</svg>
