<svg xmlns="http://www.w3.org/2000/svg" width="86" height="86" viewBox="0 0 86 86">
    <g fill="none" fill-rule="nonzero">
        <path fill="#C69C6D" d="M5 5.931h62.588V86H5z"/>
        <path fill="#E6E6E6" d="M10.96 80.069V11.862h50.667v56.345L49.706 80.069z"/>
        <path fill="#FFCD34" d="M43.745 10.38L42.255 0H30.333l-1.49 10.38-8.941 2.965v4.448h32.784v-4.448z"/>
        <path fill="#2F7A92" d="M75.04 17.793H81V63.76h-5.96z"/>
        <path fill="#53A2AB" d="M75.04 63.759l2.98 11.862L81 63.759zM75.04 8.897H81v8.896h-5.96z"/>
        <g fill="#226C8A">
            <path d="M22.882 31.138h-5.96c-.823 0-1.49-.664-1.49-1.483v-5.93c0-.82.667-1.484 1.49-1.484h5.96c.823 0 1.49.664 1.49 1.483v5.931c0 .819-.667 1.483-1.49 1.483zm-4.47-2.966h2.98v-2.965h-2.98v2.965zM22.882 43h-5.96c-.823 0-1.49-.664-1.49-1.483v-5.93c0-.82.667-1.484 1.49-1.484h5.96c.823 0 1.49.664 1.49 1.483v5.931c0 .82-.667 1.483-1.49 1.483zm-4.47-2.966h2.98V37.07h-2.98v2.965zM22.882 54.862h-5.96c-.823 0-1.49-.664-1.49-1.483v-5.93c0-.82.667-1.483 1.49-1.483h5.96c.823 0 1.49.663 1.49 1.482v5.931c0 .82-.667 1.483-1.49 1.483zm-4.47-2.965h2.98V48.93h-2.98v2.966zM22.882 66.724h-5.96c-.823 0-1.49-.664-1.49-1.483v-5.93c0-.82.667-1.483 1.49-1.483h5.96c.823 0 1.49.663 1.49 1.482v5.931c0 .82-.667 1.483-1.49 1.483zm-4.47-2.965h2.98v-2.966h-2.98v2.966zM27.353 22.241h25.333v2.966H27.353zM27.353 28.172h8.941v2.966h-8.941zM27.353 34.103h25.333v2.966H27.353zM27.353 40.034h8.941V43h-8.941zM27.353 45.966h25.333v2.965H27.353zM27.353 51.897h8.941v2.965h-8.941zM27.353 57.828h25.333v2.965H27.353zM27.353 63.759h8.941v2.965h-8.941z"/>
        </g>
        <path fill="#CCC" d="M61.627 68.207H49.706v11.862"/>
    </g>
</svg>
