<svg xmlns="http://www.w3.org/2000/svg" width="20" height="20" viewBox="0 0 20 20">
  <path d="M10,0.00143459916 C15.5220552,0.00143459916 19.9985654,4.47794481 19.9985654,10 C19.9985654,15.5220552 15.5220552,19.9985654 10,19.9985654 C4.47794481,19.9985654 0.00143459916,15.5220552 0.00143459916,10 C0.00143459916,4.47794481 4.47794481,0.00143459916 10,0.00143459916 Z M16.5633755,10.0066245 L3.43565401,10.0066245 C3.43565401,13.63173 6.37443038,16.5703376 9.99936709,16.5703376 C13.6244304,16.5703376 16.5633755,13.63173 16.5633755,10.0066245 L16.5633755,10.0066245 Z M6.96080169,4.98080169 C6.09355151,4.98080169 5.39050633,5.68384687 5.39050633,6.55109705 C5.39050633,7.41834723 6.09355151,8.12139241 6.96080169,8.12139241 C7.82805187,8.12139241 8.53109705,7.41834723 8.53109705,6.55109705 C8.53109705,5.68384687 7.82805187,4.98080169 6.96080169,4.98080169 Z M12.8986498,4.98080169 C12.0313996,4.98080169 11.3283544,5.68384687 11.3283544,6.55109705 C11.3283544,7.41834723 12.0313996,8.12139241 12.8986498,8.12139241 C13.7659,8.12139241 14.4689451,7.41834723 14.4689451,6.55109705 C14.4689451,5.68384687 13.7659,4.98080169 12.8986498,4.98080169 Z"/>
</svg>
